<svg width="152" height="61" viewBox="0 0 152 61" fill="none" xmlns="http://www.w3.org/2000/svg">
<path d="M64.384 38.32C62.9973 38.32 61.7387 37.968 60.608 37.264C59.4987 36.56 58.6133 35.6107 57.952 34.416C57.312 33.2 56.992 31.8453 56.992 30.352C56.992 28.8373 57.312 27.4827 57.952 26.288C58.6133 25.072 59.4987 24.112 60.608 23.408C61.7387 22.6827 62.9973 22.32 64.384 22.32C65.5573 22.32 66.592 22.576 67.488 23.088C68.4053 23.5787 69.1307 24.2613 69.664 25.136C70.1973 26.0107 70.464 27.0027 70.464 28.112L70.464 32.528C70.464 33.6373 70.1973 34.6293 69.664 35.504C69.152 36.3787 68.4373 37.072 67.52 37.584C66.6027 38.0747 65.5573 38.32 64.384 38.32ZM64.96 34.992C66.2613 34.992 67.3067 34.5547 68.096 33.68C68.9067 32.8053 69.312 31.6853 69.312 30.32C69.312 29.4027 69.1307 28.592 68.768 27.888C68.4053 27.184 67.8933 26.64 67.232 26.256C66.592 25.8507 65.8347 25.648 64.96 25.648C64.1067 25.648 63.3493 25.8507 62.688 26.256C62.048 26.64 61.536 27.184 61.152 27.888C60.7893 28.592 60.608 29.4027 60.608 30.32C60.608 31.2373 60.7893 32.048 61.152 32.752C61.536 33.456 62.048 34.0107 62.688 34.416C63.3493 34.8 64.1067 34.992 64.96 34.992ZM69.088 38L69.088 33.872L69.696 30.128L69.088 26.416L69.088 22.64L72.608 22.64L72.608 38L69.088 38ZM76.5145 38L76.5145 22.64L80.0345 22.64L80.0345 38L76.5145 38ZM86.7225 38L86.7225 28.848C86.7225 27.824 86.4025 27.0347 85.7625 26.48C85.1225 25.904 84.3332 25.616 83.3945 25.616C82.7545 25.616 82.1785 25.744 81.6665 26C81.1758 26.256 80.7812 26.6293 80.4825 27.12C80.1838 27.5893 80.0345 28.1653 80.0345 28.848L78.6585 28.08C78.6585 26.9067 78.9145 25.8933 79.4265 25.04C79.9385 24.1867 80.6318 23.5253 81.5065 23.056C82.3812 22.5653 83.3625 22.32 84.4505 22.32C85.5385 22.32 86.5198 22.5547 87.3945 23.024C88.2692 23.4933 88.9625 24.1547 89.4745 25.008C89.9865 25.8613 90.2425 26.8853 90.2425 28.08L90.2425 38L86.7225 38ZM96.9305 38L96.9305 28.848C96.9305 27.824 96.6105 27.0347 95.9705 26.48C95.3305 25.904 94.5412 25.616 93.6025 25.616C92.9838 25.616 92.4185 25.744 91.9065 26C91.3945 26.256 90.9892 26.6293 90.6905 27.12C90.3918 27.5893 90.2425 28.1653 90.2425 28.848L88.2585 28.08C88.3652 26.9067 88.7065 25.8933 89.2825 25.04C89.8585 24.1867 90.5945 23.5253 91.4905 23.056C92.4078 22.5653 93.4105 22.32 94.4985 22.32C95.6078 22.32 96.6105 22.5547 97.5065 23.024C98.4025 23.4933 99.1172 24.1547 99.6505 25.008C100.184 25.8613 100.451 26.8853 100.451 28.08L100.451 38L96.9305 38ZM112.301 38.32C111.128 38.32 110.082 38.0747 109.165 37.584C108.248 37.072 107.522 36.3787 106.989 35.504C106.477 34.6293 106.221 33.6373 106.221 32.528L106.221 28.112C106.221 27.0027 106.488 26.0107 107.021 25.136C107.554 24.2613 108.28 23.5787 109.197 23.088C110.114 22.576 111.149 22.32 112.301 22.32C113.688 22.32 114.936 22.6827 116.045 23.408C117.176 24.112 118.061 25.072 118.701 26.288C119.362 27.4827 119.693 28.8373 119.693 30.352C119.693 31.8453 119.362 33.2 118.701 34.416C118.061 35.6107 117.176 36.56 116.045 37.264C114.936 37.968 113.688 38.32 112.301 38.32ZM111.725 34.992C112.578 34.992 113.325 34.8 113.965 34.416C114.626 34.0107 115.138 33.456 115.501 32.752C115.885 32.048 116.077 31.2373 116.077 30.32C116.077 29.4027 115.885 28.592 115.501 27.888C115.138 27.184 114.626 26.64 113.965 26.256C113.325 25.8507 112.578 25.648 111.725 25.648C110.872 25.648 110.114 25.8507 109.453 26.256C108.792 26.64 108.28 27.184 107.917 27.888C107.554 28.592 107.373 29.4027 107.373 30.32C107.373 31.2373 107.554 32.048 107.917 32.752C108.28 33.456 108.792 34.0107 109.453 34.416C110.114 34.8 110.872 34.992 111.725 34.992ZM104.077 38L104.077 14.96L107.597 14.96L107.597 26.416L106.989 30.128L107.597 33.872L107.597 38L104.077 38ZM129.776 38.32C128.24 38.32 126.853 37.9787 125.616 37.296C124.4 36.592 123.429 35.632 122.704 34.416C122 33.2 121.648 31.8347 121.648 30.32C121.648 28.8053 122 27.4507 122.704 26.256C123.408 25.04 124.357 24.08 125.552 23.376C126.768 22.672 128.112 22.32 129.584 22.32C131.013 22.32 132.272 22.6507 133.36 23.312C134.469 23.9733 135.333 24.88 135.952 26.032C136.592 27.184 136.912 28.496 136.912 29.968C136.912 30.224 136.89 30.4907 136.847 30.768C136.826 31.024 136.784 31.312 136.72 31.632L124.112 31.632L124.112 28.752L134.896 28.752L133.584 29.904C133.541 28.9653 133.36 28.176 133.04 27.536C132.72 26.896 132.261 26.4053 131.664 26.064C131.088 25.7227 130.373 25.552 129.52 25.552C128.624 25.552 127.845 25.744 127.184 26.128C126.522 26.512 126.01 27.056 125.648 27.76C125.285 28.4427 125.104 29.264 125.104 30.224C125.104 31.184 125.296 32.0267 125.68 32.752C126.064 33.4773 126.608 34.0427 127.312 34.448C128.016 34.832 128.826 35.024 129.744 35.024C130.533 35.024 131.258 34.8853 131.92 34.608C132.602 34.3307 133.178 33.9253 133.648 33.392L135.888 35.664C135.141 36.5387 134.234 37.2 133.168 37.648C132.101 38.096 130.97 38.32 129.776 38.32ZM139.733 38L139.733 22.64L143.253 22.64L143.253 38L139.733 38ZM143.253 29.456L142.037 28.848C142.037 26.9067 142.464 25.3387 143.317 24.144C144.192 22.928 145.504 22.32 147.253 22.32C148.021 22.32 148.715 22.4587 149.333 22.736C149.952 23.0133 150.528 23.4613 151.061 24.08L148.757 26.448C148.48 26.1493 148.171 25.936 147.829 25.808C147.488 25.68 147.093 25.616 146.645 25.616C145.664 25.616 144.853 25.9253 144.213 26.544C143.573 27.1627 143.253 28.1333 143.253 29.456Z" fill="#14142B"/>
<g filter="url(#filter0_di_892_8395)">
<path d="M24.3502 8.23757C31.877 2.88209 42.3787 7.68288 43.2533 16.879L44.7994 33.1362C45.674 42.3323 36.2656 49.0266 27.8642 45.186L13.012 38.3964C4.61062 34.5558 3.51737 23.0607 11.0441 17.7052L24.3502 8.23757Z" fill="#0062FF"/>
<path d="M27.2903 13.8036C31.0537 11.1258 36.3045 13.5262 36.7418 18.1243L38.1382 32.8068C38.5755 37.4048 33.8713 40.752 29.6706 38.8317L16.257 32.6997C12.0563 30.7794 11.5097 25.0319 15.2731 22.3541L27.2903 13.8036Z" fill="#0062FF"/>
<path d="M24.9299 9.05237C31.8295 4.14318 41.456 8.5439 42.2578 16.9737L43.8039 33.2309C44.6056 41.6606 35.9812 47.7971 28.28 44.2765L13.4277 37.4869C5.72649 33.9664 4.72435 23.4292 11.6239 18.52L24.9299 9.05237ZM27.8701 14.6183C31.0062 12.3869 35.3819 14.3872 35.7463 18.2189L37.1427 32.9014C37.5071 36.7332 33.587 39.5225 30.0864 37.9222L16.6727 31.7903C13.1722 30.19 12.7167 25.4004 15.8528 23.1689L27.8701 14.6183ZM37.7374 18.0296C37.2272 12.6652 31.1012 9.86473 26.7106 12.9888L14.6933 21.5393C10.3027 24.6634 10.9404 31.3688 15.8412 33.6092L29.2549 39.7412C34.1557 41.9815 39.6439 38.0765 39.1337 32.7121L37.7374 18.0296Z" stroke="url(#paint0_angular_892_8395)" stroke-width="2"/>
</g>
<defs>
<filter id="filter0_di_892_8395" x="0" y="0" width="58.8555" height="60.291" filterUnits="userSpaceOnUse" color-interpolation-filters="sRGB">
<feFlood flood-opacity="0" result="BackgroundImageFix"/>
<feColorMatrix in="SourceAlpha" type="matrix" values="0 0 0 0 0 0 0 0 0 0 0 0 0 0 0 0 0 0 127 0" result="hardAlpha"/>
<feOffset dx="4" dy="4"/>
<feGaussianBlur stdDeviation="5"/>
<feComposite in2="hardAlpha" operator="out"/>
<feColorMatrix type="matrix" values="0 0 0 0 0 0 0 0 0 0 0 0 0 0 0 0 0 0 0.2 0"/>
<feBlend mode="normal" in2="BackgroundImageFix" result="effect1_dropShadow_892_8395"/>
<feBlend mode="normal" in="SourceGraphic" in2="effect1_dropShadow_892_8395" result="shape"/>
<feColorMatrix in="SourceAlpha" type="matrix" values="0 0 0 0 0 0 0 0 0 0 0 0 0 0 0 0 0 0 127 0" result="hardAlpha"/>
<feOffset dx="4" dy="4"/>
<feGaussianBlur stdDeviation="5"/>
<feComposite in2="hardAlpha" operator="arithmetic" k2="-1" k3="1"/>
<feColorMatrix type="matrix" values="0 0 0 0 1 0 0 0 0 1 0 0 0 0 1 0 0 0 0.23 0"/>
<feBlend mode="normal" in2="shape" result="effect2_innerShadow_892_8395"/>
</filter>
<radialGradient id="paint0_angular_892_8395" cx="0" cy="0" r="1" gradientUnits="userSpaceOnUse" gradientTransform="translate(27.2292 26.4365) rotate(149.622) scale(22.4806 22.9372)">
<stop stop-color="white"/>
<stop offset="0.820733" stop-color="white"/>
<stop offset="0.820833" stop-color="white" stop-opacity="0"/>
<stop offset="1" stop-color="white" stop-opacity="0"/>
</radialGradient>
</defs>
</svg>
