<svg width="1536" height="500" viewBox="0 0 1536 500" fill="none" xmlns="http://www.w3.org/2000/svg">
<g clip-path="url(#clip0_825_9251)">
<rect width="1536" height="500" fill="#0062FF"/>
<g filter="url(#filter0_d_825_9251)">
<path d="M1285.57 -252.059C1295.58 -259.077 1309.44 -252.74 1310.68 -240.582L1388.38 522.075C1389.64 534.376 1377.06 543.389 1365.81 538.248L660.511 215.823C649.266 210.683 647.852 195.273 657.975 188.173L1285.57 -252.059Z" fill="#0062FF"/>
</g>
<g filter="url(#filter1_d_825_9251)">
<path d="M1234 -136.273C1244.03 -143.413 1258.04 -137.012 1259.2 -124.751L1309.99 409.275C1311.16 421.536 1298.61 430.462 1287.41 425.341L799.536 202.313C788.335 197.192 786.877 181.865 796.913 174.725L1234 -136.273Z" fill="#0062FF"/>
</g>
<g filter="url(#filter2_d_825_9251)">
<path d="M1185.36 -25.1577C1192.89 -30.5132 1203.39 -25.7124 1204.27 -16.5163L1235.63 313.272C1236.5 322.468 1227.1 329.163 1218.69 325.322L917.407 187.59C909.006 183.75 907.913 172.255 915.439 166.899L1185.36 -25.1577Z" fill="#0062FF"/>
</g>
<g filter="url(#filter3_d_825_9251)">
<path d="M1142.24 73.7091C1148.52 69.2462 1157.27 73.2469 1158 80.9103L1171.85 226.611C1172.58 234.275 1164.74 239.853 1157.74 236.653L1024.63 175.803C1017.63 172.602 1016.72 163.023 1022.99 158.56L1142.24 73.7091Z" fill="#0062FF"/>
</g>
<path d="M153.456 150V116.256H159.984V150H153.456ZM158.256 150V144.192H175.44V150H158.256ZM189.935 150.48C187.503 150.48 185.343 149.968 183.455 148.944C181.567 147.888 180.063 146.448 178.943 144.624C177.855 142.8 177.311 140.72 177.311 138.384C177.311 136.08 177.839 134.032 178.895 132.24C179.983 130.416 181.455 128.976 183.311 127.92C185.167 126.832 187.231 126.288 189.503 126.288C191.743 126.288 193.711 126.8 195.407 127.824C197.135 128.816 198.479 130.192 199.439 131.952C200.431 133.68 200.927 135.648 200.927 137.856C200.927 138.272 200.895 138.704 200.831 139.152C200.799 139.568 200.719 140.048 200.591 140.592L181.103 140.64V135.936L197.663 135.888L195.119 137.856C195.055 136.48 194.799 135.328 194.351 134.4C193.935 133.472 193.311 132.768 192.479 132.288C191.679 131.776 190.687 131.52 189.503 131.52C188.255 131.52 187.167 131.808 186.239 132.384C185.311 132.928 184.591 133.712 184.079 134.736C183.599 135.728 183.359 136.912 183.359 138.288C183.359 139.696 183.615 140.928 184.127 141.984C184.671 143.008 185.439 143.808 186.431 144.384C187.423 144.928 188.575 145.2 189.887 145.2C191.071 145.2 192.143 145.008 193.103 144.624C194.063 144.208 194.895 143.6 195.599 142.8L199.295 146.496C198.175 147.808 196.799 148.8 195.167 149.472C193.567 150.144 191.823 150.48 189.935 150.48ZM207.661 150V117.168H213.949V150H207.661ZM202.237 132.336V126.816H219.373V132.336H202.237ZM223.364 128.928L226.724 122.64L228.74 122.064C228.516 122.512 228.26 122.88 227.972 123.168C227.684 123.424 227.348 123.552 226.964 123.552C226.132 123.552 225.364 123.216 224.66 122.544C223.988 121.84 223.652 120.96 223.652 119.904C223.652 118.752 224.036 117.776 224.804 116.976C225.572 116.176 226.516 115.776 227.636 115.776C228.724 115.776 229.668 116.176 230.468 116.976C231.268 117.776 231.668 118.752 231.668 119.904C231.668 120.352 231.572 120.896 231.38 121.536C231.188 122.144 230.836 122.928 230.324 123.888L226.628 130.704L223.364 128.928ZM241.377 150.528C240.065 150.528 238.769 150.352 237.489 150C236.241 149.648 235.089 149.168 234.033 148.56C232.977 147.92 232.065 147.152 231.297 146.256L235.041 142.464C235.841 143.36 236.769 144.032 237.825 144.48C238.881 144.928 240.049 145.152 241.329 145.152C242.353 145.152 243.121 145.008 243.633 144.72C244.177 144.432 244.449 144 244.449 143.424C244.449 142.784 244.161 142.288 243.585 141.936C243.041 141.584 242.321 141.296 241.425 141.072C240.529 140.816 239.585 140.544 238.593 140.256C237.633 139.936 236.705 139.536 235.809 139.056C234.913 138.544 234.177 137.856 233.601 136.992C233.057 136.096 232.785 134.944 232.785 133.536C232.785 132.064 233.137 130.784 233.841 129.696C234.577 128.608 235.617 127.76 236.961 127.152C238.305 126.544 239.889 126.24 241.713 126.24C243.633 126.24 245.361 126.576 246.897 127.248C248.465 127.92 249.761 128.928 250.785 130.272L246.993 134.064C246.289 133.2 245.489 132.576 244.593 132.192C243.729 131.808 242.785 131.616 241.761 131.616C240.833 131.616 240.113 131.76 239.601 132.048C239.121 132.336 238.881 132.736 238.881 133.248C238.881 133.824 239.153 134.272 239.697 134.592C240.273 134.912 241.009 135.2 241.905 135.456C242.801 135.68 243.729 135.952 244.689 136.272C245.681 136.56 246.609 136.976 247.473 137.52C248.369 138.064 249.089 138.784 249.633 139.68C250.209 140.576 250.497 141.728 250.497 143.136C250.497 145.408 249.681 147.216 248.049 148.56C246.417 149.872 244.193 150.528 241.377 150.528ZM275.056 150.48C272.688 150.48 270.56 149.952 268.672 148.896C266.784 147.84 265.296 146.4 264.208 144.576C263.12 142.752 262.576 140.704 262.576 138.432C262.576 136.128 263.12 134.064 264.208 132.24C265.296 130.416 266.784 128.976 268.672 127.92C270.592 126.832 272.72 126.288 275.056 126.288C276.88 126.288 278.56 126.624 280.096 127.296C281.632 127.968 282.96 128.928 284.08 130.176L280.048 134.256C279.44 133.584 278.704 133.072 277.84 132.72C277.008 132.368 276.08 132.192 275.056 132.192C273.904 132.192 272.864 132.464 271.936 133.008C271.04 133.52 270.32 134.24 269.776 135.168C269.264 136.064 269.008 137.136 269.008 138.384C269.008 139.6 269.264 140.688 269.776 141.648C270.32 142.576 271.04 143.312 271.936 143.856C272.864 144.368 273.904 144.624 275.056 144.624C276.112 144.624 277.056 144.448 277.888 144.096C278.752 143.712 279.488 143.168 280.096 142.464L284.176 146.544C282.992 147.824 281.632 148.8 280.096 149.472C278.56 150.144 276.88 150.48 275.056 150.48ZM287.737 150V126.816H294.025V150H287.737ZM294.025 137.184L291.577 135.552C291.865 132.704 292.697 130.464 294.073 128.832C295.449 127.168 297.433 126.336 300.025 126.336C301.145 126.336 302.153 126.528 303.049 126.912C303.945 127.264 304.761 127.856 305.497 128.688L301.561 133.2C301.209 132.816 300.777 132.528 300.265 132.336C299.785 132.144 299.225 132.048 298.585 132.048C297.241 132.048 296.137 132.48 295.273 133.344C294.441 134.176 294.025 135.456 294.025 137.184ZM318.138 150.48C315.706 150.48 313.546 149.968 311.658 148.944C309.77 147.888 308.266 146.448 307.146 144.624C306.058 142.8 305.514 140.72 305.514 138.384C305.514 136.08 306.042 134.032 307.098 132.24C308.186 130.416 309.658 128.976 311.514 127.92C313.37 126.832 315.434 126.288 317.706 126.288C319.946 126.288 321.914 126.8 323.61 127.824C325.338 128.816 326.682 130.192 327.642 131.952C328.634 133.68 329.13 135.648 329.13 137.856C329.13 138.272 329.098 138.704 329.034 139.152C329.002 139.568 328.922 140.048 328.794 140.592L309.306 140.64V135.936L325.866 135.888L323.322 137.856C323.258 136.48 323.002 135.328 322.554 134.4C322.138 133.472 321.514 132.768 320.682 132.288C319.882 131.776 318.89 131.52 317.706 131.52C316.458 131.52 315.37 131.808 314.442 132.384C313.514 132.928 312.794 133.712 312.282 134.736C311.802 135.728 311.562 136.912 311.562 138.288C311.562 139.696 311.818 140.928 312.33 141.984C312.874 143.008 313.642 143.808 314.634 144.384C315.626 144.928 316.778 145.2 318.09 145.2C319.274 145.2 320.346 145.008 321.306 144.624C322.266 144.208 323.098 143.6 323.802 142.8L327.498 146.496C326.378 147.808 325.002 148.8 323.37 149.472C321.77 150.144 320.026 150.48 318.138 150.48ZM342.714 150.48C340.602 150.48 338.698 149.952 337.002 148.896C335.306 147.84 333.978 146.4 333.018 144.576C332.058 142.752 331.578 140.704 331.578 138.432C331.578 136.128 332.058 134.064 333.018 132.24C333.978 130.416 335.306 128.976 337.002 127.92C338.698 126.864 340.602 126.336 342.714 126.336C344.378 126.336 345.866 126.672 347.178 127.344C348.49 128.016 349.53 128.96 350.298 130.176C351.098 131.36 351.53 132.704 351.594 134.208V142.56C351.53 144.096 351.098 145.456 350.298 146.64C349.53 147.824 348.49 148.768 347.178 149.472C345.866 150.144 344.378 150.48 342.714 150.48ZM343.866 144.672C345.626 144.672 347.05 144.096 348.138 142.944C349.226 141.76 349.77 140.24 349.77 138.384C349.77 137.168 349.514 136.096 349.002 135.168C348.522 134.208 347.834 133.472 346.938 132.96C346.074 132.416 345.05 132.144 343.866 132.144C342.714 132.144 341.69 132.416 340.794 132.96C339.93 133.472 339.242 134.208 338.73 135.168C338.25 136.096 338.01 137.168 338.01 138.384C338.01 139.632 338.25 140.736 338.73 141.696C339.242 142.624 339.93 143.36 340.794 143.904C341.69 144.416 342.714 144.672 343.866 144.672ZM349.434 150V143.76L350.442 138.096L349.434 132.528V126.816H355.674V150H349.434ZM364.645 150V117.168H370.933V150H364.645ZM359.221 132.336V126.816H376.357V132.336H359.221ZM390.419 150.48C387.987 150.48 385.827 149.968 383.939 148.944C382.051 147.888 380.547 146.448 379.427 144.624C378.339 142.8 377.795 140.72 377.795 138.384C377.795 136.08 378.323 134.032 379.379 132.24C380.467 130.416 381.939 128.976 383.795 127.92C385.651 126.832 387.715 126.288 389.987 126.288C392.227 126.288 394.195 126.8 395.891 127.824C397.619 128.816 398.963 130.192 399.923 131.952C400.915 133.68 401.411 135.648 401.411 137.856C401.411 138.272 401.379 138.704 401.315 139.152C401.283 139.568 401.203 140.048 401.075 140.592L381.587 140.64V135.936L398.147 135.888L395.603 137.856C395.539 136.48 395.283 135.328 394.835 134.4C394.419 133.472 393.795 132.768 392.963 132.288C392.163 131.776 391.171 131.52 389.987 131.52C388.739 131.52 387.651 131.808 386.723 132.384C385.795 132.928 385.075 133.712 384.563 134.736C384.083 135.728 383.843 136.912 383.843 138.288C383.843 139.696 384.099 140.928 384.611 141.984C385.155 143.008 385.923 143.808 386.915 144.384C387.907 144.928 389.059 145.2 390.371 145.2C391.555 145.2 392.627 145.008 393.587 144.624C394.547 144.208 395.379 143.6 396.083 142.8L399.779 146.496C398.659 147.808 397.283 148.8 395.651 149.472C394.051 150.144 392.307 150.48 390.419 150.48ZM421.971 150.192L412.275 126.816H419.091L425.523 144.672H423.219L429.891 126.816H436.755L426.435 150.144L421.971 150.192ZM415.539 159.696L422.595 144.768L426.435 150.144L422.211 159.696H415.539ZM449.805 150.48C447.469 150.48 445.357 149.952 443.469 148.896C441.613 147.808 440.125 146.352 439.005 144.528C437.917 142.672 437.373 140.608 437.373 138.336C437.373 136.064 437.917 134.032 439.005 132.24C440.093 130.416 441.581 128.976 443.469 127.92C445.357 126.832 447.453 126.288 449.757 126.288C452.125 126.288 454.237 126.832 456.093 127.92C457.981 128.976 459.469 130.416 460.557 132.24C461.645 134.032 462.189 136.064 462.189 138.336C462.189 140.608 461.645 142.672 460.557 144.528C459.469 146.352 457.981 147.808 456.093 148.896C454.237 149.952 452.141 150.48 449.805 150.48ZM449.757 144.624C450.941 144.624 451.981 144.368 452.877 143.856C453.805 143.312 454.509 142.576 454.989 141.648C455.501 140.688 455.757 139.6 455.757 138.384C455.757 137.168 455.501 136.096 454.989 135.168C454.477 134.24 453.773 133.52 452.877 133.008C451.981 132.464 450.941 132.192 449.757 132.192C448.605 132.192 447.581 132.464 446.685 133.008C445.789 133.52 445.085 134.24 444.573 135.168C444.061 136.096 443.805 137.168 443.805 138.384C443.805 139.6 444.061 140.688 444.573 141.648C445.085 142.576 445.789 143.312 446.685 143.856C447.581 144.368 448.605 144.624 449.757 144.624ZM476.125 150.48C474.077 150.48 472.253 150.048 470.653 149.184C469.085 148.32 467.853 147.12 466.957 145.584C466.061 144.048 465.613 142.272 465.613 140.256V126.816H471.949V140.112C471.949 141.072 472.109 141.904 472.429 142.608C472.749 143.28 473.229 143.792 473.869 144.144C474.509 144.496 475.261 144.672 476.125 144.672C477.437 144.672 478.461 144.272 479.197 143.472C479.933 142.672 480.301 141.552 480.301 140.112V126.816H486.589V140.256C486.589 142.304 486.141 144.096 485.245 145.632C484.381 147.168 483.149 148.368 481.549 149.232C479.981 150.064 478.173 150.48 476.125 150.48ZM491.597 150V126.816H497.885V150H491.597ZM497.885 137.184L495.437 135.552C495.725 132.704 496.557 130.464 497.933 128.832C499.309 127.168 501.293 126.336 503.885 126.336C505.005 126.336 506.013 126.528 506.909 126.912C507.805 127.264 508.621 127.856 509.357 128.688L505.421 133.2C505.069 132.816 504.637 132.528 504.125 132.336C503.645 132.144 503.085 132.048 502.445 132.048C501.101 132.048 499.997 132.48 499.133 133.344C498.301 134.176 497.885 135.456 497.885 137.184ZM537.384 150V136.704C537.384 135.328 536.952 134.208 536.088 133.344C535.224 132.48 534.104 132.048 532.728 132.048C531.832 132.048 531.032 132.24 530.328 132.624C529.624 133.008 529.064 133.552 528.648 134.256C528.264 134.96 528.072 135.776 528.072 136.704L525.624 135.456C525.624 133.632 526.008 132.048 526.776 130.704C527.576 129.328 528.664 128.256 530.04 127.488C531.448 126.72 533.032 126.336 534.792 126.336C536.488 126.336 538.008 126.768 539.352 127.632C540.696 128.464 541.752 129.568 542.52 130.944C543.288 132.288 543.672 133.744 543.672 135.312V150H537.384ZM521.784 150V126.816H528.072V150H521.784ZM559.825 150.48C557.393 150.48 555.233 149.968 553.345 148.944C551.457 147.888 549.953 146.448 548.833 144.624C547.745 142.8 547.201 140.72 547.201 138.384C547.201 136.08 547.729 134.032 548.785 132.24C549.873 130.416 551.345 128.976 553.201 127.92C555.057 126.832 557.121 126.288 559.393 126.288C561.633 126.288 563.601 126.8 565.297 127.824C567.025 128.816 568.369 130.192 569.329 131.952C570.321 133.68 570.817 135.648 570.817 137.856C570.817 138.272 570.785 138.704 570.721 139.152C570.689 139.568 570.609 140.048 570.481 140.592L550.993 140.64V135.936L567.553 135.888L565.009 137.856C564.945 136.48 564.689 135.328 564.241 134.4C563.825 133.472 563.201 132.768 562.369 132.288C561.569 131.776 560.577 131.52 559.393 131.52C558.145 131.52 557.057 131.808 556.129 132.384C555.201 132.928 554.481 133.712 553.969 134.736C553.489 135.728 553.249 136.912 553.249 138.288C553.249 139.696 553.505 140.928 554.017 141.984C554.561 143.008 555.329 143.808 556.321 144.384C557.313 144.928 558.465 145.2 559.777 145.2C560.961 145.2 562.033 145.008 562.993 144.624C563.953 144.208 564.785 143.6 565.489 142.8L569.185 146.496C568.065 147.808 566.689 148.8 565.057 149.472C563.457 150.144 561.713 150.48 559.825 150.48ZM588.593 150L582.497 140.592L581.201 139.632L572.177 126.816H579.617L585.233 135.312L586.433 136.224L595.984 150H588.593ZM571.697 150L581.153 136.752L584.753 141.024L578.801 150H571.697ZM586.673 139.584L582.977 135.36L588.497 126.816H595.552L586.673 139.584ZM601.88 150V117.168H608.168V150H601.88ZM596.456 132.336V126.816H613.592V132.336H596.456ZM165.648 210.48C163.984 210.48 162.48 210.144 161.136 209.472C159.792 208.768 158.72 207.824 157.92 206.64C157.12 205.456 156.688 204.096 156.624 202.56V194.352C156.688 192.816 157.12 191.456 157.92 190.272C158.752 189.056 159.824 188.096 161.136 187.392C162.48 186.688 163.984 186.336 165.648 186.336C167.792 186.336 169.712 186.864 171.408 187.92C173.104 188.976 174.432 190.416 175.392 192.24C176.384 194.064 176.88 196.128 176.88 198.432C176.88 200.704 176.384 202.752 175.392 204.576C174.432 206.4 173.104 207.84 171.408 208.896C169.712 209.952 167.792 210.48 165.648 210.48ZM164.544 204.672C165.696 204.672 166.72 204.416 167.616 203.904C168.512 203.36 169.2 202.624 169.68 201.696C170.192 200.736 170.448 199.632 170.448 198.384C170.448 197.168 170.192 196.096 169.68 195.168C169.2 194.208 168.512 193.472 167.616 192.96C166.72 192.416 165.696 192.144 164.544 192.144C163.424 192.144 162.416 192.416 161.52 192.96C160.624 193.472 159.92 194.208 159.408 195.168C158.928 196.096 158.688 197.168 158.688 198.384C158.688 199.632 158.928 200.736 159.408 201.696C159.92 202.624 160.608 203.36 161.472 203.904C162.368 204.416 163.392 204.672 164.544 204.672ZM152.784 219.696V186.816H159.072V192.912L158.016 198.528L159.024 204.144V219.696H152.784ZM181.003 210V186.816H187.291V210H181.003ZM187.291 197.184L184.843 195.552C185.131 192.704 185.963 190.464 187.339 188.832C188.715 187.168 190.699 186.336 193.291 186.336C194.411 186.336 195.419 186.528 196.315 186.912C197.211 187.264 198.027 187.856 198.763 188.688L194.827 193.2C194.475 192.816 194.043 192.528 193.531 192.336C193.051 192.144 192.491 192.048 191.851 192.048C190.507 192.048 189.403 192.48 188.539 193.344C187.707 194.176 187.291 195.456 187.291 197.184ZM211.211 210.48C208.875 210.48 206.763 209.952 204.875 208.896C203.019 207.808 201.531 206.352 200.411 204.528C199.323 202.672 198.779 200.608 198.779 198.336C198.779 196.064 199.323 194.032 200.411 192.24C201.499 190.416 202.987 188.976 204.875 187.92C206.763 186.832 208.859 186.288 211.163 186.288C213.531 186.288 215.643 186.832 217.499 187.92C219.387 188.976 220.875 190.416 221.963 192.24C223.051 194.032 223.595 196.064 223.595 198.336C223.595 200.608 223.051 202.672 221.963 204.528C220.875 206.352 219.387 207.808 217.499 208.896C215.643 209.952 213.547 210.48 211.211 210.48ZM211.163 204.624C212.347 204.624 213.387 204.368 214.283 203.856C215.211 203.312 215.915 202.576 216.395 201.648C216.907 200.688 217.163 199.6 217.163 198.384C217.163 197.168 216.907 196.096 216.395 195.168C215.883 194.24 215.179 193.52 214.283 193.008C213.387 192.464 212.347 192.192 211.163 192.192C210.011 192.192 208.987 192.464 208.091 193.008C207.195 193.52 206.491 194.24 205.979 195.168C205.467 196.096 205.211 197.168 205.211 198.384C205.211 199.6 205.467 200.688 205.979 201.648C206.491 202.576 207.195 203.312 208.091 203.856C208.987 204.368 210.011 204.624 211.163 204.624ZM225.771 220.272C224.107 220.272 222.731 220 221.643 219.456C220.523 218.912 219.515 218.144 218.619 217.152L222.603 213.168C222.987 213.648 223.403 213.984 223.851 214.176C224.267 214.4 224.763 214.512 225.339 214.512C226.139 214.512 226.811 214.272 227.355 213.792C227.899 213.312 228.171 212.608 228.171 211.68V186.816H234.459V211.584C234.459 213.408 234.059 214.96 233.259 216.24C232.491 217.552 231.451 218.544 230.139 219.216C228.859 219.92 227.403 220.272 225.771 220.272ZM231.387 183.072C230.363 183.072 229.515 182.736 228.843 182.064C228.171 181.36 227.835 180.496 227.835 179.472C227.835 178.48 228.171 177.632 228.843 176.928C229.515 176.224 230.363 175.872 231.387 175.872C232.443 175.872 233.291 176.224 233.931 176.928C234.603 177.632 234.939 178.48 234.939 179.472C234.939 180.496 234.603 181.36 233.931 182.064C233.291 182.736 232.443 183.072 231.387 183.072ZM251.06 210.48C248.628 210.48 246.468 209.968 244.58 208.944C242.692 207.888 241.188 206.448 240.068 204.624C238.98 202.8 238.436 200.72 238.436 198.384C238.436 196.08 238.964 194.032 240.02 192.24C241.108 190.416 242.58 188.976 244.436 187.92C246.292 186.832 248.356 186.288 250.628 186.288C252.868 186.288 254.836 186.8 256.532 187.824C258.26 188.816 259.604 190.192 260.564 191.952C261.556 193.68 262.052 195.648 262.052 197.856C262.052 198.272 262.02 198.704 261.956 199.152C261.924 199.568 261.844 200.048 261.716 200.592L242.228 200.64V195.936L258.788 195.888L256.244 197.856C256.18 196.48 255.924 195.328 255.476 194.4C255.06 193.472 254.436 192.768 253.604 192.288C252.804 191.776 251.812 191.52 250.628 191.52C249.38 191.52 248.292 191.808 247.364 192.384C246.436 192.928 245.716 193.712 245.204 194.736C244.724 195.728 244.484 196.912 244.484 198.288C244.484 199.696 244.74 200.928 245.252 201.984C245.796 203.008 246.564 203.808 247.556 204.384C248.548 204.928 249.7 205.2 251.012 205.2C252.196 205.2 253.268 205.008 254.228 204.624C255.188 204.208 256.02 203.6 256.724 202.8L260.42 206.496C259.3 207.808 257.924 208.8 256.292 209.472C254.692 210.144 252.948 210.48 251.06 210.48ZM276.884 210.48C274.516 210.48 272.388 209.952 270.5 208.896C268.612 207.84 267.124 206.4 266.036 204.576C264.948 202.752 264.404 200.704 264.404 198.432C264.404 196.128 264.948 194.064 266.036 192.24C267.124 190.416 268.612 188.976 270.5 187.92C272.42 186.832 274.548 186.288 276.884 186.288C278.708 186.288 280.388 186.624 281.924 187.296C283.46 187.968 284.788 188.928 285.908 190.176L281.876 194.256C281.268 193.584 280.532 193.072 279.668 192.72C278.836 192.368 277.908 192.192 276.884 192.192C275.732 192.192 274.692 192.464 273.764 193.008C272.868 193.52 272.148 194.24 271.604 195.168C271.092 196.064 270.836 197.136 270.836 198.384C270.836 199.6 271.092 200.688 271.604 201.648C272.148 202.576 272.868 203.312 273.764 203.856C274.692 204.368 275.732 204.624 276.884 204.624C277.94 204.624 278.884 204.448 279.716 204.096C280.58 203.712 281.316 203.168 281.924 202.464L286.004 206.544C284.82 207.824 283.46 208.8 281.924 209.472C280.388 210.144 278.708 210.48 276.884 210.48ZM292.598 210V177.168H298.886V210H292.598ZM287.174 192.336V186.816H304.31V192.336H287.174ZM320.63 210V177.168H326.918V210H320.63ZM315.206 192.336V186.816H332.342V192.336H315.206ZM346.211 210.48C343.875 210.48 341.763 209.952 339.875 208.896C338.019 207.808 336.531 206.352 335.411 204.528C334.323 202.672 333.779 200.608 333.779 198.336C333.779 196.064 334.323 194.032 335.411 192.24C336.499 190.416 337.987 188.976 339.875 187.92C341.763 186.832 343.859 186.288 346.163 186.288C348.531 186.288 350.643 186.832 352.499 187.92C354.387 188.976 355.875 190.416 356.963 192.24C358.051 194.032 358.595 196.064 358.595 198.336C358.595 200.608 358.051 202.672 356.963 204.528C355.875 206.352 354.387 207.808 352.499 208.896C350.643 209.952 348.547 210.48 346.211 210.48ZM346.163 204.624C347.347 204.624 348.387 204.368 349.283 203.856C350.211 203.312 350.915 202.576 351.395 201.648C351.907 200.688 352.163 199.6 352.163 198.384C352.163 197.168 351.907 196.096 351.395 195.168C350.883 194.24 350.179 193.52 349.283 193.008C348.387 192.464 347.347 192.192 346.163 192.192C345.011 192.192 343.987 192.464 343.091 193.008C342.195 193.52 341.491 194.24 340.979 195.168C340.467 196.096 340.211 197.168 340.211 198.384C340.211 199.6 340.467 200.688 340.979 201.648C341.491 202.576 342.195 203.312 343.091 203.856C343.987 204.368 345.011 204.624 346.163 204.624ZM372.339 220.272C369.875 220.272 367.699 219.824 365.811 218.928C363.923 218.064 362.419 216.832 361.299 215.232L365.283 211.248C366.179 212.304 367.171 213.104 368.259 213.648C369.379 214.224 370.723 214.512 372.291 214.512C374.243 214.512 375.779 214.016 376.899 213.024C378.051 212.032 378.627 210.656 378.627 208.896V203.088L379.683 198L378.675 192.912V186.816H384.915V208.8C384.915 211.104 384.371 213.104 383.283 214.8C382.227 216.528 380.755 217.872 378.867 218.832C376.979 219.792 374.803 220.272 372.339 220.272ZM372.051 209.376C369.971 209.376 368.099 208.88 366.435 207.888C364.771 206.864 363.459 205.472 362.499 203.712C361.571 201.952 361.107 199.984 361.107 197.808C361.107 195.632 361.571 193.68 362.499 191.952C363.459 190.224 364.771 188.864 366.435 187.872C368.099 186.848 369.971 186.336 372.051 186.336C373.779 186.336 375.299 186.672 376.611 187.344C377.955 188.016 379.011 188.944 379.779 190.128C380.547 191.28 380.963 192.64 381.027 194.208V201.504C380.963 203.04 380.531 204.416 379.731 205.632C378.963 206.816 377.907 207.744 376.563 208.416C375.251 209.056 373.747 209.376 372.051 209.376ZM373.299 203.664C374.451 203.664 375.443 203.424 376.275 202.944C377.139 202.432 377.811 201.744 378.291 200.88C378.771 199.984 379.011 198.976 379.011 197.856C379.011 196.704 378.771 195.696 378.291 194.832C377.811 193.968 377.139 193.296 376.275 192.816C375.443 192.304 374.451 192.048 373.299 192.048C372.147 192.048 371.139 192.304 370.275 192.816C369.411 193.296 368.739 193.984 368.259 194.88C367.779 195.744 367.539 196.736 367.539 197.856C367.539 198.944 367.779 199.936 368.259 200.832C368.739 201.696 369.411 202.384 370.275 202.896C371.139 203.408 372.147 203.664 373.299 203.664ZM401.528 210.48C399.096 210.48 396.936 209.968 395.048 208.944C393.16 207.888 391.656 206.448 390.536 204.624C389.448 202.8 388.904 200.72 388.904 198.384C388.904 196.08 389.432 194.032 390.488 192.24C391.576 190.416 393.048 188.976 394.904 187.92C396.76 186.832 398.824 186.288 401.096 186.288C403.336 186.288 405.304 186.8 407 187.824C408.728 188.816 410.072 190.192 411.032 191.952C412.024 193.68 412.52 195.648 412.52 197.856C412.52 198.272 412.488 198.704 412.424 199.152C412.392 199.568 412.312 200.048 412.184 200.592L392.696 200.64V195.936L409.256 195.888L406.712 197.856C406.648 196.48 406.392 195.328 405.944 194.4C405.528 193.472 404.904 192.768 404.072 192.288C403.272 191.776 402.28 191.52 401.096 191.52C399.848 191.52 398.76 191.808 397.832 192.384C396.904 192.928 396.184 193.712 395.672 194.736C395.192 195.728 394.952 196.912 394.952 198.288C394.952 199.696 395.208 200.928 395.72 201.984C396.264 203.008 397.032 203.808 398.024 204.384C399.016 204.928 400.168 205.2 401.48 205.2C402.664 205.2 403.736 205.008 404.696 204.624C405.656 204.208 406.488 203.6 407.192 202.8L410.888 206.496C409.768 207.808 408.392 208.8 406.76 209.472C405.16 210.144 403.416 210.48 401.528 210.48ZM419.255 210V177.168H425.543V210H419.255ZM413.831 192.336V186.816H430.967V192.336H413.831ZM450.103 210V196.704C450.103 195.328 449.671 194.208 448.807 193.344C447.943 192.48 446.823 192.048 445.447 192.048C444.551 192.048 443.751 192.24 443.047 192.624C442.343 193.008 441.783 193.552 441.367 194.256C440.983 194.96 440.791 195.776 440.791 196.704L438.343 195.456C438.343 193.632 438.727 192.048 439.495 190.704C440.263 189.328 441.319 188.256 442.663 187.488C444.039 186.72 445.607 186.336 447.367 186.336C449.127 186.336 450.679 186.72 452.023 187.488C453.399 188.256 454.471 189.312 455.239 190.656C456.007 192 456.391 193.552 456.391 195.312V210H450.103ZM434.503 210V175.296H440.791V210H434.503ZM472.544 210.48C470.112 210.48 467.952 209.968 466.064 208.944C464.176 207.888 462.672 206.448 461.552 204.624C460.464 202.8 459.92 200.72 459.92 198.384C459.92 196.08 460.448 194.032 461.504 192.24C462.592 190.416 464.064 188.976 465.92 187.92C467.776 186.832 469.84 186.288 472.112 186.288C474.352 186.288 476.32 186.8 478.016 187.824C479.744 188.816 481.088 190.192 482.048 191.952C483.04 193.68 483.536 195.648 483.536 197.856C483.536 198.272 483.504 198.704 483.44 199.152C483.408 199.568 483.328 200.048 483.2 200.592L463.712 200.64V195.936L480.272 195.888L477.728 197.856C477.664 196.48 477.408 195.328 476.96 194.4C476.544 193.472 475.92 192.768 475.088 192.288C474.288 191.776 473.296 191.52 472.112 191.52C470.864 191.52 469.776 191.808 468.848 192.384C467.92 192.928 467.2 193.712 466.688 194.736C466.208 195.728 465.968 196.912 465.968 198.288C465.968 199.696 466.224 200.928 466.736 201.984C467.28 203.008 468.048 203.808 469.04 204.384C470.032 204.928 471.184 205.2 472.496 205.2C473.68 205.2 474.752 205.008 475.712 204.624C476.672 204.208 477.504 203.6 478.208 202.8L481.904 206.496C480.784 207.808 479.408 208.8 477.776 209.472C476.176 210.144 474.432 210.48 472.544 210.48ZM487.425 210V186.816H493.713V210H487.425ZM493.713 197.184L491.265 195.552C491.553 192.704 492.385 190.464 493.761 188.832C495.137 187.168 497.121 186.336 499.713 186.336C500.833 186.336 501.841 186.528 502.737 186.912C503.633 187.264 504.449 187.856 505.185 188.688L501.249 193.2C500.897 192.816 500.465 192.528 499.953 192.336C499.473 192.144 498.913 192.048 498.273 192.048C496.929 192.048 495.825 192.48 494.961 193.344C494.129 194.176 493.713 195.456 493.713 197.184Z" fill="white"/>
<path d="M153.456 286V283.936H158.088C159.32 283.936 160.4 283.672 161.328 283.144C162.256 282.6 162.976 281.856 163.488 280.912C164.016 279.968 164.28 278.88 164.28 277.648C164.28 276.432 164.016 275.352 163.488 274.408C162.96 273.464 162.232 272.728 161.304 272.2C160.376 271.672 159.304 271.408 158.088 271.408H153.48V269.344H158.136C159.352 269.344 160.472 269.552 161.496 269.968C162.536 270.384 163.432 270.968 164.184 271.72C164.952 272.472 165.544 273.352 165.96 274.36C166.392 275.368 166.608 276.472 166.608 277.672C166.608 278.856 166.392 279.96 165.96 280.984C165.544 281.992 164.96 282.872 164.208 283.624C163.456 284.376 162.56 284.96 161.52 285.376C160.496 285.792 159.384 286 158.184 286H153.456ZM151.968 286V269.344H154.224V286H151.968ZM174.63 286.24C173.494 286.24 172.47 285.984 171.558 285.472C170.646 284.944 169.926 284.232 169.398 283.336C168.87 282.44 168.606 281.424 168.606 280.288C168.606 279.168 168.862 278.16 169.374 277.264C169.902 276.368 170.606 275.664 171.486 275.152C172.382 274.624 173.382 274.36 174.486 274.36C175.542 274.36 176.47 274.6 177.27 275.08C178.086 275.56 178.718 276.224 179.166 277.072C179.63 277.92 179.862 278.88 179.862 279.952C179.862 280.112 179.854 280.288 179.838 280.48C179.822 280.656 179.79 280.864 179.742 281.104H170.118V279.304H178.59L177.798 280C177.798 279.232 177.662 278.584 177.39 278.056C177.118 277.512 176.734 277.096 176.238 276.808C175.742 276.504 175.142 276.352 174.438 276.352C173.702 276.352 173.054 276.512 172.494 276.832C171.934 277.152 171.502 277.6 171.198 278.176C170.894 278.752 170.742 279.432 170.742 280.216C170.742 281.016 170.902 281.72 171.222 282.328C171.542 282.92 171.998 283.384 172.59 283.72C173.182 284.04 173.862 284.2 174.63 284.2C175.27 284.2 175.854 284.088 176.382 283.864C176.926 283.64 177.39 283.304 177.774 282.856L179.166 284.272C178.622 284.912 177.95 285.4 177.15 285.736C176.366 286.072 175.526 286.24 174.63 286.24ZM185.841 286.24C185.201 286.24 184.593 286.16 184.017 286C183.457 285.824 182.937 285.584 182.457 285.28C181.977 284.96 181.561 284.584 181.209 284.152L182.601 282.76C183.017 283.272 183.497 283.656 184.041 283.912C184.585 284.152 185.193 284.272 185.865 284.272C186.537 284.272 187.057 284.16 187.425 283.936C187.793 283.696 187.977 283.368 187.977 282.952C187.977 282.536 187.825 282.216 187.521 281.992C187.233 281.752 186.857 281.56 186.393 281.416C185.929 281.256 185.433 281.104 184.905 280.96C184.393 280.8 183.905 280.6 183.441 280.36C182.977 280.12 182.593 279.792 182.289 279.376C182.001 278.96 181.857 278.408 181.857 277.72C181.857 277.032 182.025 276.44 182.361 275.944C182.697 275.432 183.161 275.04 183.753 274.768C184.361 274.496 185.089 274.36 185.937 274.36C186.833 274.36 187.625 274.52 188.313 274.84C189.017 275.144 189.593 275.608 190.041 276.232L188.649 277.624C188.329 277.208 187.929 276.888 187.449 276.664C186.985 276.44 186.457 276.328 185.865 276.328C185.241 276.328 184.761 276.44 184.425 276.664C184.105 276.872 183.945 277.168 183.945 277.552C183.945 277.936 184.089 278.232 184.377 278.44C184.665 278.648 185.041 278.824 185.505 278.968C185.985 279.112 186.481 279.264 186.993 279.424C187.505 279.568 187.993 279.768 188.457 280.024C188.921 280.28 189.297 280.624 189.585 281.056C189.889 281.488 190.041 282.056 190.041 282.76C190.041 283.832 189.657 284.68 188.889 285.304C188.137 285.928 187.121 286.24 185.841 286.24ZM192.483 286V274.6H194.643V286H192.483ZM193.563 272.32C193.163 272.32 192.835 272.192 192.579 271.936C192.323 271.664 192.195 271.328 192.195 270.928C192.195 270.544 192.323 270.224 192.579 269.968C192.835 269.696 193.163 269.56 193.563 269.56C193.963 269.56 194.291 269.696 194.547 269.968C194.803 270.224 194.931 270.544 194.931 270.928C194.931 271.328 194.803 271.664 194.547 271.936C194.291 272.192 193.963 272.32 193.563 272.32ZM202.554 291.016C201.386 291.016 200.346 290.8 199.434 290.368C198.538 289.936 197.818 289.328 197.274 288.544L198.666 287.128C199.13 287.72 199.682 288.168 200.322 288.472C200.962 288.792 201.722 288.952 202.602 288.952C203.77 288.952 204.69 288.64 205.362 288.016C206.05 287.408 206.394 286.584 206.394 285.544V282.712L206.778 280.144L206.394 277.6V274.6H208.554V285.544C208.554 286.632 208.298 287.584 207.786 288.4C207.29 289.216 206.586 289.856 205.674 290.32C204.778 290.784 203.738 291.016 202.554 291.016ZM202.554 285.808C201.514 285.808 200.578 285.56 199.746 285.064C198.93 284.568 198.282 283.888 197.802 283.024C197.322 282.144 197.082 281.16 197.082 280.072C197.082 278.984 197.322 278.016 197.802 277.168C198.282 276.304 198.93 275.624 199.746 275.128C200.578 274.616 201.514 274.36 202.554 274.36C203.45 274.36 204.242 274.536 204.93 274.888C205.618 275.24 206.162 275.736 206.562 276.376C206.978 277 207.202 277.736 207.234 278.584V281.608C207.186 282.44 206.954 283.176 206.538 283.816C206.138 284.44 205.594 284.928 204.906 285.28C204.218 285.632 203.434 285.808 202.554 285.808ZM202.986 283.768C203.69 283.768 204.306 283.616 204.834 283.312C205.378 283.008 205.794 282.584 206.082 282.04C206.37 281.48 206.514 280.832 206.514 280.096C206.514 279.36 206.362 278.72 206.058 278.176C205.77 277.616 205.362 277.184 204.834 276.88C204.306 276.56 203.682 276.4 202.962 276.4C202.242 276.4 201.61 276.56 201.066 276.88C200.522 277.184 200.09 277.616 199.77 278.176C199.466 278.72 199.314 279.352 199.314 280.072C199.314 280.792 199.466 281.432 199.77 281.992C200.09 282.552 200.522 282.992 201.066 283.312C201.626 283.616 202.266 283.768 202.986 283.768ZM219.789 286V279.352C219.789 278.488 219.517 277.776 218.973 277.216C218.429 276.656 217.725 276.376 216.861 276.376C216.285 276.376 215.773 276.504 215.325 276.76C214.877 277.016 214.525 277.368 214.269 277.816C214.013 278.264 213.885 278.776 213.885 279.352L212.997 278.848C212.997 277.984 213.189 277.216 213.573 276.544C213.957 275.872 214.493 275.344 215.181 274.96C215.869 274.56 216.645 274.36 217.509 274.36C218.373 274.36 219.133 274.576 219.789 275.008C220.461 275.44 220.989 276.008 221.373 276.712C221.757 277.4 221.949 278.136 221.949 278.92V286H219.789ZM211.725 286V274.6H213.885V286H211.725ZM231.617 286V269.824H233.777V286H231.617ZM228.809 276.568V274.6H236.585V276.568H228.809ZM246.765 286V279.352C246.765 278.488 246.493 277.776 245.949 277.216C245.405 276.656 244.701 276.376 243.837 276.376C243.261 276.376 242.749 276.504 242.301 276.76C241.853 277.016 241.501 277.368 241.245 277.816C240.989 278.264 240.861 278.776 240.861 279.352L239.973 278.848C239.973 277.984 240.165 277.216 240.549 276.544C240.933 275.872 241.469 275.344 242.157 274.96C242.845 274.56 243.621 274.36 244.485 274.36C245.349 274.36 246.109 274.552 246.765 274.936C247.437 275.32 247.965 275.856 248.349 276.544C248.733 277.232 248.925 278.024 248.925 278.92V286H246.765ZM238.701 286V268.864H240.861V286H238.701ZM256.698 286.24C255.658 286.24 254.714 285.984 253.866 285.472C253.018 284.944 252.346 284.232 251.85 283.336C251.37 282.44 251.13 281.432 251.13 280.312C251.13 279.192 251.37 278.184 251.85 277.288C252.346 276.392 253.01 275.68 253.842 275.152C254.69 274.624 255.642 274.36 256.698 274.36C257.562 274.36 258.33 274.544 259.002 274.912C259.69 275.264 260.242 275.76 260.658 276.4C261.074 277.024 261.306 277.752 261.354 278.584V282.016C261.306 282.832 261.074 283.56 260.658 284.2C260.258 284.84 259.714 285.344 259.026 285.712C258.354 286.064 257.578 286.24 256.698 286.24ZM257.058 284.2C258.13 284.2 258.994 283.84 259.65 283.12C260.306 282.384 260.634 281.448 260.634 280.312C260.634 279.528 260.482 278.848 260.178 278.272C259.89 277.68 259.474 277.224 258.93 276.904C258.386 276.568 257.754 276.4 257.034 276.4C256.314 276.4 255.674 276.568 255.114 276.904C254.57 277.24 254.138 277.704 253.818 278.296C253.514 278.872 253.362 279.536 253.362 280.288C253.362 281.056 253.514 281.736 253.818 282.328C254.138 282.904 254.578 283.36 255.138 283.696C255.698 284.032 256.338 284.2 257.058 284.2ZM260.49 286V282.928L260.898 280.144L260.49 277.384V274.6H262.674V286H260.49ZM267.524 286V269.824H269.684V286H267.524ZM264.716 276.568V274.6H272.492V276.568H264.716ZM287.664 286V279.352C287.664 278.488 287.392 277.776 286.848 277.216C286.304 276.656 285.6 276.376 284.736 276.376C284.16 276.376 283.648 276.504 283.2 276.76C282.752 277.016 282.4 277.368 282.144 277.816C281.888 278.264 281.76 278.776 281.76 279.352L280.872 278.848C280.872 277.984 281.064 277.216 281.448 276.544C281.832 275.872 282.368 275.344 283.056 274.96C283.744 274.56 284.52 274.36 285.384 274.36C286.248 274.36 287.008 274.552 287.664 274.936C288.336 275.32 288.864 275.856 289.248 276.544C289.632 277.232 289.824 278.024 289.824 278.92V286H287.664ZM279.6 286V268.864H281.76V286H279.6ZM298.028 286.24C296.892 286.24 295.868 285.984 294.956 285.472C294.044 284.944 293.324 284.232 292.796 283.336C292.268 282.44 292.004 281.424 292.004 280.288C292.004 279.168 292.26 278.16 292.772 277.264C293.3 276.368 294.004 275.664 294.884 275.152C295.78 274.624 296.78 274.36 297.884 274.36C298.94 274.36 299.868 274.6 300.668 275.08C301.484 275.56 302.116 276.224 302.564 277.072C303.028 277.92 303.26 278.88 303.26 279.952C303.26 280.112 303.252 280.288 303.236 280.48C303.22 280.656 303.188 280.864 303.14 281.104H293.516V279.304H301.988L301.196 280C301.196 279.232 301.06 278.584 300.788 278.056C300.516 277.512 300.132 277.096 299.636 276.808C299.14 276.504 298.54 276.352 297.836 276.352C297.1 276.352 296.452 276.512 295.892 276.832C295.332 277.152 294.9 277.6 294.596 278.176C294.292 278.752 294.14 279.432 294.14 280.216C294.14 281.016 294.3 281.72 294.62 282.328C294.94 282.92 295.396 283.384 295.988 283.72C296.58 284.04 297.26 284.2 298.028 284.2C298.668 284.2 299.252 284.088 299.78 283.864C300.324 283.64 300.788 283.304 301.172 282.856L302.564 284.272C302.02 284.912 301.348 285.4 300.548 285.736C299.764 286.072 298.924 286.24 298.028 286.24ZM305.615 286V268.864H307.775V286H305.615ZM316.936 286.24C316.072 286.24 315.288 286.064 314.584 285.712C313.896 285.344 313.344 284.84 312.928 284.2C312.512 283.56 312.28 282.832 312.232 282.016V278.584C312.28 277.752 312.512 277.024 312.928 276.4C313.36 275.76 313.92 275.264 314.608 274.912C315.312 274.544 316.088 274.36 316.936 274.36C317.976 274.36 318.912 274.624 319.744 275.152C320.592 275.68 321.256 276.392 321.736 277.288C322.216 278.184 322.456 279.192 322.456 280.312C322.456 281.432 322.216 282.44 321.736 283.336C321.256 284.232 320.592 284.944 319.744 285.472C318.912 285.984 317.976 286.24 316.936 286.24ZM316.576 284.2C317.296 284.2 317.928 284.032 318.472 283.696C319.016 283.36 319.448 282.904 319.768 282.328C320.088 281.736 320.248 281.056 320.248 280.288C320.248 279.536 320.088 278.864 319.768 278.272C319.448 277.68 319.016 277.224 318.472 276.904C317.928 276.568 317.304 276.4 316.6 276.4C315.88 276.4 315.248 276.568 314.704 276.904C314.16 277.224 313.736 277.68 313.432 278.272C313.128 278.864 312.976 279.544 312.976 280.312C312.976 281.064 313.12 281.736 313.408 282.328C313.712 282.904 314.136 283.36 314.68 283.696C315.24 284.032 315.872 284.2 316.576 284.2ZM310.936 290.776V274.6H313.096V277.6L312.688 280.36L313.096 283.144V290.776H310.936ZM328.528 286.24C327.888 286.24 327.28 286.16 326.704 286C326.144 285.824 325.624 285.584 325.144 285.28C324.664 284.96 324.248 284.584 323.896 284.152L325.288 282.76C325.704 283.272 326.184 283.656 326.728 283.912C327.272 284.152 327.88 284.272 328.552 284.272C329.224 284.272 329.744 284.16 330.112 283.936C330.48 283.696 330.664 283.368 330.664 282.952C330.664 282.536 330.512 282.216 330.208 281.992C329.92 281.752 329.544 281.56 329.08 281.416C328.616 281.256 328.12 281.104 327.592 280.96C327.08 280.8 326.592 280.6 326.128 280.36C325.664 280.12 325.28 279.792 324.976 279.376C324.688 278.96 324.544 278.408 324.544 277.72C324.544 277.032 324.712 276.44 325.048 275.944C325.384 275.432 325.848 275.04 326.44 274.768C327.048 274.496 327.776 274.36 328.624 274.36C329.52 274.36 330.312 274.52 331 274.84C331.704 275.144 332.28 275.608 332.728 276.232L331.336 277.624C331.016 277.208 330.616 276.888 330.136 276.664C329.672 276.44 329.144 276.328 328.552 276.328C327.928 276.328 327.448 276.44 327.112 276.664C326.792 276.872 326.632 277.168 326.632 277.552C326.632 277.936 326.776 278.232 327.064 278.44C327.352 278.648 327.728 278.824 328.192 278.968C328.672 279.112 329.168 279.264 329.68 279.424C330.192 279.568 330.68 279.768 331.144 280.024C331.608 280.28 331.984 280.624 332.272 281.056C332.576 281.488 332.728 282.056 332.728 282.76C332.728 283.832 332.344 284.68 331.576 285.304C330.824 285.928 329.808 286.24 328.528 286.24ZM344.723 286.24C343.795 286.24 342.955 286.032 342.203 285.616C341.467 285.184 340.891 284.592 340.475 283.84C340.059 283.088 339.851 282.216 339.851 281.224V274.6H342.011V281.128C342.011 281.752 342.115 282.296 342.323 282.76C342.547 283.208 342.867 283.552 343.283 283.792C343.699 284.032 344.187 284.152 344.747 284.152C345.595 284.152 346.259 283.888 346.739 283.36C347.219 282.816 347.459 282.072 347.459 281.128V274.6H349.619V281.224C349.619 282.216 349.411 283.088 348.995 283.84C348.579 284.592 348.003 285.184 347.267 285.616C346.547 286.032 345.699 286.24 344.723 286.24ZM356.138 286.24C355.498 286.24 354.89 286.16 354.314 286C353.754 285.824 353.234 285.584 352.754 285.28C352.274 284.96 351.858 284.584 351.506 284.152L352.898 282.76C353.314 283.272 353.794 283.656 354.338 283.912C354.882 284.152 355.49 284.272 356.162 284.272C356.834 284.272 357.354 284.16 357.722 283.936C358.09 283.696 358.274 283.368 358.274 282.952C358.274 282.536 358.122 282.216 357.818 281.992C357.53 281.752 357.154 281.56 356.69 281.416C356.226 281.256 355.73 281.104 355.202 280.96C354.69 280.8 354.202 280.6 353.738 280.36C353.274 280.12 352.89 279.792 352.586 279.376C352.298 278.96 352.154 278.408 352.154 277.72C352.154 277.032 352.322 276.44 352.658 275.944C352.994 275.432 353.458 275.04 354.05 274.768C354.658 274.496 355.386 274.36 356.234 274.36C357.13 274.36 357.922 274.52 358.61 274.84C359.314 275.144 359.89 275.608 360.338 276.232L358.946 277.624C358.626 277.208 358.226 276.888 357.746 276.664C357.282 276.44 356.754 276.328 356.162 276.328C355.538 276.328 355.058 276.44 354.722 276.664C354.402 276.872 354.242 277.168 354.242 277.552C354.242 277.936 354.386 278.232 354.674 278.44C354.962 278.648 355.338 278.824 355.802 278.968C356.282 279.112 356.778 279.264 357.29 279.424C357.802 279.568 358.29 279.768 358.754 280.024C359.218 280.28 359.594 280.624 359.882 281.056C360.186 281.488 360.338 282.056 360.338 282.76C360.338 283.832 359.954 284.68 359.186 285.304C358.434 285.928 357.418 286.24 356.138 286.24ZM368.036 286.24C366.9 286.24 365.876 285.984 364.964 285.472C364.052 284.944 363.332 284.232 362.804 283.336C362.276 282.44 362.012 281.424 362.012 280.288C362.012 279.168 362.268 278.16 362.78 277.264C363.308 276.368 364.012 275.664 364.892 275.152C365.788 274.624 366.788 274.36 367.892 274.36C368.948 274.36 369.876 274.6 370.676 275.08C371.492 275.56 372.124 276.224 372.572 277.072C373.036 277.92 373.268 278.88 373.268 279.952C373.268 280.112 373.26 280.288 373.244 280.48C373.228 280.656 373.196 280.864 373.148 281.104H363.524V279.304H371.996L371.204 280C371.204 279.232 371.068 278.584 370.796 278.056C370.524 277.512 370.14 277.096 369.644 276.808C369.148 276.504 368.548 276.352 367.844 276.352C367.108 276.352 366.46 276.512 365.9 276.832C365.34 277.152 364.908 277.6 364.604 278.176C364.3 278.752 364.148 279.432 364.148 280.216C364.148 281.016 364.308 281.72 364.628 282.328C364.948 282.92 365.404 283.384 365.996 283.72C366.588 284.04 367.268 284.2 368.036 284.2C368.676 284.2 369.26 284.088 369.788 283.864C370.332 283.64 370.796 283.304 371.18 282.856L372.572 284.272C372.028 284.912 371.356 285.4 370.556 285.736C369.772 286.072 368.932 286.24 368.036 286.24ZM375.623 286V274.6H377.783V286H375.623ZM377.783 279.496L376.967 279.136C376.967 277.68 377.303 276.52 377.975 275.656C378.647 274.792 379.615 274.36 380.879 274.36C381.455 274.36 381.975 274.464 382.439 274.672C382.903 274.864 383.335 275.192 383.735 275.656L382.319 277.12C382.079 276.864 381.815 276.68 381.527 276.568C381.239 276.456 380.903 276.4 380.519 276.4C379.719 276.4 379.063 276.656 378.551 277.168C378.039 277.68 377.783 278.456 377.783 279.496ZM388.622 286.24C387.982 286.24 387.374 286.16 386.798 286C386.238 285.824 385.718 285.584 385.238 285.28C384.758 284.96 384.342 284.584 383.99 284.152L385.382 282.76C385.798 283.272 386.278 283.656 386.822 283.912C387.366 284.152 387.974 284.272 388.646 284.272C389.318 284.272 389.838 284.16 390.206 283.936C390.574 283.696 390.758 283.368 390.758 282.952C390.758 282.536 390.606 282.216 390.302 281.992C390.014 281.752 389.638 281.56 389.174 281.416C388.71 281.256 388.214 281.104 387.686 280.96C387.174 280.8 386.686 280.6 386.222 280.36C385.758 280.12 385.374 279.792 385.07 279.376C384.782 278.96 384.638 278.408 384.638 277.72C384.638 277.032 384.806 276.44 385.142 275.944C385.478 275.432 385.942 275.04 386.534 274.768C387.142 274.496 387.87 274.36 388.718 274.36C389.614 274.36 390.406 274.52 391.094 274.84C391.798 275.144 392.374 275.608 392.822 276.232L391.43 277.624C391.11 277.208 390.71 276.888 390.23 276.664C389.766 276.44 389.238 276.328 388.646 276.328C388.022 276.328 387.542 276.44 387.206 276.664C386.886 276.872 386.726 277.168 386.726 277.552C386.726 277.936 386.87 278.232 387.158 278.44C387.446 278.648 387.822 278.824 388.286 278.968C388.766 279.112 389.262 279.264 389.774 279.424C390.286 279.568 390.774 279.768 391.238 280.024C391.702 280.28 392.078 280.624 392.366 281.056C392.67 281.488 392.822 282.056 392.822 282.76C392.822 283.832 392.438 284.68 391.67 285.304C390.918 285.928 389.902 286.24 388.622 286.24ZM395.36 288.64L396.848 285.784L397.616 285.592C397.536 285.768 397.432 285.912 397.304 286.024C397.192 286.136 397.048 286.192 396.872 286.192C396.536 286.192 396.224 286.056 395.936 285.784C395.664 285.496 395.528 285.144 395.528 284.728C395.528 284.264 395.68 283.88 395.984 283.576C396.288 283.256 396.672 283.096 397.136 283.096C397.552 283.096 397.92 283.256 398.24 283.576C398.56 283.88 398.72 284.264 398.72 284.728C398.72 284.904 398.68 285.12 398.6 285.376C398.536 285.616 398.4 285.928 398.192 286.312L396.608 289.312L395.36 288.64ZM412.05 286.24C410.93 286.24 409.922 285.976 409.026 285.448C408.13 284.92 407.418 284.208 406.89 283.312C406.362 282.4 406.098 281.384 406.098 280.264C406.098 279.16 406.362 278.168 406.89 277.288C407.418 276.392 408.13 275.68 409.026 275.152C409.922 274.624 410.93 274.36 412.05 274.36C413.154 274.36 414.154 274.624 415.05 275.152C415.962 275.664 416.682 276.368 417.21 277.264C417.738 278.16 418.002 279.16 418.002 280.264C418.002 281.384 417.738 282.4 417.21 283.312C416.682 284.208 415.962 284.92 415.05 285.448C414.154 285.976 413.154 286.24 412.05 286.24ZM412.05 284.152C412.77 284.152 413.41 283.984 413.97 283.648C414.53 283.312 414.97 282.856 415.29 282.28C415.61 281.688 415.77 281.016 415.77 280.264C415.77 279.528 415.602 278.872 415.266 278.296C414.946 277.72 414.506 277.272 413.946 276.952C413.402 276.616 412.77 276.448 412.05 276.448C411.33 276.448 410.69 276.616 410.13 276.952C409.57 277.272 409.13 277.72 408.81 278.296C408.49 278.872 408.33 279.528 408.33 280.264C408.33 281.016 408.49 281.688 408.81 282.28C409.13 282.856 409.57 283.312 410.13 283.648C410.69 283.984 411.33 284.152 412.05 284.152ZM428.5 286V279.352C428.5 278.488 428.228 277.776 427.684 277.216C427.14 276.656 426.436 276.376 425.572 276.376C424.996 276.376 424.484 276.504 424.036 276.76C423.588 277.016 423.236 277.368 422.98 277.816C422.724 278.264 422.596 278.776 422.596 279.352L421.708 278.848C421.708 277.984 421.9 277.216 422.284 276.544C422.668 275.872 423.204 275.344 423.892 274.96C424.58 274.56 425.356 274.36 426.22 274.36C427.084 274.36 427.844 274.576 428.5 275.008C429.172 275.44 429.7 276.008 430.084 276.712C430.468 277.4 430.66 278.136 430.66 278.92V286H428.5ZM420.436 286V274.6H422.596V286H420.436ZM438.864 286.24C437.728 286.24 436.704 285.984 435.792 285.472C434.88 284.944 434.16 284.232 433.632 283.336C433.104 282.44 432.84 281.424 432.84 280.288C432.84 279.168 433.096 278.16 433.608 277.264C434.136 276.368 434.84 275.664 435.72 275.152C436.616 274.624 437.616 274.36 438.72 274.36C439.776 274.36 440.704 274.6 441.504 275.08C442.32 275.56 442.952 276.224 443.4 277.072C443.864 277.92 444.096 278.88 444.096 279.952C444.096 280.112 444.088 280.288 444.072 280.48C444.056 280.656 444.024 280.864 443.976 281.104H434.352V279.304H442.824L442.032 280C442.032 279.232 441.896 278.584 441.624 278.056C441.352 277.512 440.968 277.096 440.472 276.808C439.976 276.504 439.376 276.352 438.672 276.352C437.936 276.352 437.288 276.512 436.728 276.832C436.168 277.152 435.736 277.6 435.432 278.176C435.128 278.752 434.976 279.432 434.976 280.216C434.976 281.016 435.136 281.72 435.456 282.328C435.776 282.92 436.232 283.384 436.824 283.72C437.416 284.04 438.096 284.2 438.864 284.2C439.504 284.2 440.088 284.088 440.616 283.864C441.16 283.64 441.624 283.304 442.008 282.856L443.4 284.272C442.856 284.912 442.184 285.4 441.384 285.736C440.6 286.072 439.76 286.24 438.864 286.24ZM457.443 286.24C456.579 286.24 455.795 286.064 455.091 285.712C454.403 285.344 453.851 284.84 453.435 284.2C453.019 283.56 452.787 282.832 452.739 282.016V278.584C452.787 277.752 453.019 277.024 453.435 276.4C453.867 275.76 454.427 275.264 455.115 274.912C455.819 274.544 456.595 274.36 457.443 274.36C458.483 274.36 459.419 274.624 460.251 275.152C461.099 275.68 461.763 276.392 462.243 277.288C462.723 278.184 462.963 279.192 462.963 280.312C462.963 281.432 462.723 282.44 462.243 283.336C461.763 284.232 461.099 284.944 460.251 285.472C459.419 285.984 458.483 286.24 457.443 286.24ZM457.083 284.2C457.803 284.2 458.435 284.032 458.979 283.696C459.523 283.36 459.955 282.904 460.275 282.328C460.595 281.736 460.755 281.056 460.755 280.288C460.755 279.536 460.595 278.864 460.275 278.272C459.955 277.68 459.523 277.224 458.979 276.904C458.435 276.568 457.811 276.4 457.107 276.4C456.387 276.4 455.755 276.568 455.211 276.904C454.667 277.224 454.243 277.68 453.939 278.272C453.635 278.864 453.483 279.544 453.483 280.312C453.483 281.064 453.627 281.736 453.915 282.328C454.219 282.904 454.643 283.36 455.187 283.696C455.747 284.032 456.379 284.2 457.083 284.2ZM451.443 290.776V274.6H453.603V277.6L453.195 280.36L453.603 283.144V290.776H451.443ZM465.412 286V274.6H467.572V286H465.412ZM467.572 279.496L466.756 279.136C466.756 277.68 467.092 276.52 467.764 275.656C468.436 274.792 469.404 274.36 470.668 274.36C471.244 274.36 471.764 274.464 472.228 274.672C472.692 274.864 473.124 275.192 473.524 275.656L472.108 277.12C471.868 276.864 471.604 276.68 471.316 276.568C471.028 276.456 470.692 276.4 470.308 276.4C469.508 276.4 468.852 276.656 468.34 277.168C467.828 277.68 467.572 278.456 467.572 279.496ZM479.878 286.24C478.758 286.24 477.75 285.976 476.854 285.448C475.958 284.92 475.246 284.208 474.718 283.312C474.19 282.4 473.926 281.384 473.926 280.264C473.926 279.16 474.19 278.168 474.718 277.288C475.246 276.392 475.958 275.68 476.854 275.152C477.75 274.624 478.758 274.36 479.878 274.36C480.982 274.36 481.982 274.624 482.878 275.152C483.79 275.664 484.51 276.368 485.038 277.264C485.566 278.16 485.83 279.16 485.83 280.264C485.83 281.384 485.566 282.4 485.038 283.312C484.51 284.208 483.79 284.92 482.878 285.448C481.982 285.976 480.982 286.24 479.878 286.24ZM479.878 284.152C480.598 284.152 481.238 283.984 481.798 283.648C482.358 283.312 482.798 282.856 483.118 282.28C483.438 281.688 483.598 281.016 483.598 280.264C483.598 279.528 483.43 278.872 483.094 278.296C482.774 277.72 482.334 277.272 481.774 276.952C481.23 276.616 480.598 276.448 479.878 276.448C479.158 276.448 478.518 276.616 477.958 276.952C477.398 277.272 476.958 277.72 476.638 278.296C476.318 278.872 476.158 279.528 476.158 280.264C476.158 281.016 476.318 281.688 476.638 282.28C476.958 282.856 477.398 283.312 477.958 283.648C478.518 283.984 479.158 284.152 479.878 284.152ZM493.088 286.24C492.032 286.24 491.088 285.984 490.256 285.472C489.424 284.944 488.76 284.232 488.264 283.336C487.784 282.44 487.544 281.432 487.544 280.312C487.544 279.192 487.784 278.184 488.264 277.288C488.76 276.392 489.424 275.68 490.256 275.152C491.088 274.624 492.032 274.36 493.088 274.36C493.936 274.36 494.704 274.544 495.392 274.912C496.08 275.264 496.632 275.76 497.048 276.4C497.48 277.024 497.72 277.752 497.768 278.584V282.016C497.72 282.832 497.488 283.56 497.072 284.2C496.656 284.84 496.104 285.344 495.416 285.712C494.728 286.064 493.952 286.24 493.088 286.24ZM493.448 284.2C494.168 284.2 494.792 284.032 495.32 283.696C495.864 283.36 496.288 282.904 496.592 282.328C496.896 281.736 497.048 281.064 497.048 280.312C497.048 279.528 496.888 278.848 496.568 278.272C496.264 277.696 495.84 277.24 495.296 276.904C494.768 276.568 494.144 276.4 493.424 276.4C492.704 276.4 492.072 276.568 491.528 276.904C490.984 277.24 490.552 277.704 490.232 278.296C489.928 278.872 489.776 279.536 489.776 280.288C489.776 281.056 489.928 281.736 490.232 282.328C490.552 282.904 490.984 283.36 491.528 283.696C492.088 284.032 492.728 284.2 493.448 284.2ZM499.088 286H496.904V282.928L497.312 280.144L496.904 277.384V268.864H499.088V286ZM506.816 286.24C505.888 286.24 505.048 286.032 504.296 285.616C503.56 285.184 502.984 284.592 502.568 283.84C502.152 283.088 501.944 282.216 501.944 281.224V274.6H504.104V281.128C504.104 281.752 504.208 282.296 504.416 282.76C504.64 283.208 504.96 283.552 505.376 283.792C505.792 284.032 506.28 284.152 506.84 284.152C507.688 284.152 508.352 283.888 508.832 283.36C509.312 282.816 509.552 282.072 509.552 281.128V274.6H511.712V281.224C511.712 282.216 511.504 283.088 511.088 283.84C510.672 284.592 510.096 285.184 509.36 285.616C508.64 286.032 507.792 286.24 506.816 286.24ZM519.815 286.24C518.695 286.24 517.679 285.976 516.767 285.448C515.871 284.92 515.159 284.208 514.631 283.312C514.119 282.4 513.863 281.392 513.863 280.288C513.863 279.168 514.119 278.16 514.631 277.264C515.159 276.368 515.871 275.664 516.767 275.152C517.679 274.624 518.695 274.36 519.815 274.36C520.695 274.36 521.511 274.528 522.263 274.864C523.015 275.184 523.663 275.656 524.207 276.28L522.767 277.72C522.415 277.304 521.983 276.992 521.471 276.784C520.975 276.56 520.423 276.448 519.815 276.448C519.095 276.448 518.455 276.616 517.895 276.952C517.335 277.272 516.895 277.72 516.575 278.296C516.255 278.872 516.095 279.536 516.095 280.288C516.095 281.04 516.255 281.704 516.575 282.28C516.895 282.856 517.335 283.312 517.895 283.648C518.455 283.984 519.095 284.152 519.815 284.152C520.423 284.152 520.975 284.048 521.471 283.84C521.983 283.616 522.423 283.296 522.791 282.88L524.207 284.32C523.679 284.928 523.031 285.4 522.263 285.736C521.511 286.072 520.695 286.24 519.815 286.24ZM527.961 286V269.824H530.121V286H527.961ZM525.153 276.568V274.6H532.929V276.568H525.153ZM544.885 286.24C543.845 286.24 542.901 285.984 542.053 285.472C541.205 284.944 540.533 284.232 540.037 283.336C539.557 282.44 539.317 281.432 539.317 280.312C539.317 279.192 539.557 278.184 540.037 277.288C540.533 276.392 541.197 275.68 542.029 275.152C542.877 274.624 543.829 274.36 544.885 274.36C545.749 274.36 546.517 274.544 547.189 274.912C547.877 275.264 548.429 275.76 548.845 276.4C549.261 277.024 549.493 277.752 549.541 278.584V282.016C549.493 282.832 549.261 283.56 548.845 284.2C548.445 284.84 547.901 285.344 547.213 285.712C546.541 286.064 545.765 286.24 544.885 286.24ZM545.245 284.2C546.317 284.2 547.181 283.84 547.837 283.12C548.493 282.384 548.821 281.448 548.821 280.312C548.821 279.528 548.669 278.848 548.365 278.272C548.077 277.68 547.661 277.224 547.117 276.904C546.573 276.568 545.941 276.4 545.221 276.4C544.501 276.4 543.861 276.568 543.301 276.904C542.757 277.24 542.325 277.704 542.005 278.296C541.701 278.872 541.549 279.536 541.549 280.288C541.549 281.056 541.701 281.736 542.005 282.328C542.325 282.904 542.765 283.36 543.325 283.696C543.885 284.032 544.525 284.2 545.245 284.2ZM548.677 286V282.928L549.085 280.144L548.677 277.384V274.6H550.861V286H548.677ZM555.711 286V269.824H557.871V286H555.711ZM552.903 276.568V274.6H560.679V276.568H552.903ZM572.635 286.24C571.595 286.24 570.651 285.984 569.803 285.472C568.955 284.944 568.283 284.232 567.787 283.336C567.307 282.44 567.067 281.432 567.067 280.312C567.067 279.192 567.307 278.184 567.787 277.288C568.283 276.392 568.947 275.68 569.779 275.152C570.627 274.624 571.579 274.36 572.635 274.36C573.499 274.36 574.267 274.544 574.939 274.912C575.627 275.264 576.179 275.76 576.595 276.4C577.011 277.024 577.243 277.752 577.291 278.584V282.016C577.243 282.832 577.011 283.56 576.595 284.2C576.195 284.84 575.651 285.344 574.963 285.712C574.291 286.064 573.515 286.24 572.635 286.24ZM572.995 284.2C574.067 284.2 574.931 283.84 575.587 283.12C576.243 282.384 576.571 281.448 576.571 280.312C576.571 279.528 576.419 278.848 576.115 278.272C575.827 277.68 575.411 277.224 574.867 276.904C574.323 276.568 573.691 276.4 572.971 276.4C572.251 276.4 571.611 276.568 571.051 276.904C570.507 277.24 570.075 277.704 569.755 278.296C569.451 278.872 569.299 279.536 569.299 280.288C569.299 281.056 569.451 281.736 569.755 282.328C570.075 282.904 570.515 283.36 571.075 283.696C571.635 284.032 572.275 284.2 572.995 284.2ZM576.427 286V282.928L576.835 280.144L576.427 277.384V274.6H578.611V286H576.427ZM588.5 286V269.824H590.66V286H588.5ZM585.692 276.568V274.6H593.468V276.568H585.692ZM595.608 286V274.6H597.768V286H595.608ZM596.688 272.32C596.288 272.32 595.96 272.192 595.704 271.936C595.448 271.664 595.32 271.328 595.32 270.928C595.32 270.544 595.448 270.224 595.704 269.968C595.96 269.696 596.288 269.56 596.688 269.56C597.088 269.56 597.416 269.696 597.672 269.968C597.928 270.224 598.056 270.544 598.056 270.928C598.056 271.328 597.928 271.664 597.672 271.936C597.416 272.192 597.088 272.32 596.688 272.32ZM600.951 286V274.6H603.111V286H600.951ZM608.655 286V279.112C608.655 278.264 608.391 277.6 607.863 277.12C607.351 276.624 606.703 276.376 605.919 276.376C605.391 276.376 604.919 276.488 604.503 276.712C604.087 276.936 603.751 277.248 603.495 277.648C603.239 278.048 603.111 278.528 603.111 279.088L602.223 278.656C602.223 277.792 602.407 277.04 602.775 276.4C603.159 275.76 603.679 275.264 604.335 274.912C604.991 274.544 605.727 274.36 606.543 274.36C607.343 274.36 608.063 274.536 608.703 274.888C609.359 275.24 609.871 275.736 610.239 276.376C610.623 277.016 610.815 277.776 610.815 278.656V286H608.655ZM616.359 286V279.112C616.359 278.264 616.095 277.6 615.567 277.12C615.055 276.624 614.415 276.376 613.647 276.376C613.119 276.376 612.639 276.488 612.207 276.712C611.791 276.936 611.455 277.248 611.199 277.648C610.943 278.048 610.815 278.528 610.815 279.088L609.591 278.656C609.639 277.776 609.871 277.024 610.287 276.4C610.719 275.76 611.271 275.264 611.943 274.912C612.615 274.544 613.351 274.36 614.151 274.36C614.983 274.36 615.727 274.536 616.383 274.888C617.039 275.24 617.559 275.736 617.943 276.376C618.343 277.016 618.543 277.784 618.543 278.68V286H616.359ZM626.762 286.24C625.626 286.24 624.602 285.984 623.69 285.472C622.778 284.944 622.058 284.232 621.53 283.336C621.002 282.44 620.738 281.424 620.738 280.288C620.738 279.168 620.994 278.16 621.506 277.264C622.034 276.368 622.738 275.664 623.618 275.152C624.514 274.624 625.514 274.36 626.618 274.36C627.674 274.36 628.602 274.6 629.402 275.08C630.218 275.56 630.85 276.224 631.298 277.072C631.762 277.92 631.994 278.88 631.994 279.952C631.994 280.112 631.986 280.288 631.97 280.48C631.954 280.656 631.922 280.864 631.874 281.104H622.25V279.304H630.722L629.93 280C629.93 279.232 629.794 278.584 629.522 278.056C629.25 277.512 628.866 277.096 628.37 276.808C627.874 276.504 627.274 276.352 626.57 276.352C625.834 276.352 625.186 276.512 624.626 276.832C624.066 277.152 623.634 277.6 623.33 278.176C623.026 278.752 622.874 279.432 622.874 280.216C622.874 281.016 623.034 281.72 623.354 282.328C623.674 282.92 624.13 283.384 624.722 283.72C625.314 284.04 625.994 284.2 626.762 284.2C627.402 284.2 627.986 284.088 628.514 283.864C629.058 283.64 629.522 283.304 629.906 282.856L631.298 284.272C630.754 284.912 630.082 285.4 629.282 285.736C628.498 286.072 627.658 286.24 626.762 286.24ZM636.246 286.24C635.798 286.24 635.422 286.088 635.118 285.784C634.83 285.464 634.686 285.088 634.686 284.656C634.686 284.208 634.83 283.84 635.118 283.552C635.422 283.248 635.798 283.096 636.246 283.096C636.694 283.096 637.062 283.248 637.35 283.552C637.654 283.84 637.806 284.208 637.806 284.656C637.806 285.088 637.654 285.464 637.35 285.784C637.062 286.088 636.694 286.24 636.246 286.24Z" fill="white"/>
<g filter="url(#filter4_di_825_9251)">
<path d="M150 367C150 349.327 164.327 335 182 335H293C310.673 335 325 349.327 325 367V367C325 384.673 310.673 399 293 399H182C164.327 399 150 384.673 150 367V367Z" fill="black"/>
</g>
<path d="M200.454 373.16C199.654 373.16 198.902 373.016 198.198 372.728C197.504 372.429 196.891 372.013 196.358 371.48C195.835 370.947 195.424 370.333 195.126 369.64C194.838 368.936 194.694 368.179 194.694 367.368C194.694 366.547 194.843 365.789 195.142 365.096C195.44 364.392 195.856 363.779 196.39 363.256C196.923 362.723 197.547 362.312 198.262 362.024C198.976 361.725 199.75 361.576 200.582 361.576C201.51 361.576 202.363 361.752 203.142 362.104C203.92 362.445 204.566 362.931 205.078 363.56L203.606 365.032C203.254 364.573 202.816 364.221 202.294 363.976C201.771 363.731 201.195 363.608 200.566 363.608C199.851 363.608 199.216 363.768 198.662 364.088C198.118 364.397 197.691 364.835 197.382 365.4C197.072 365.955 196.918 366.605 196.918 367.352C196.918 368.099 197.067 368.76 197.366 369.336C197.675 369.901 198.091 370.344 198.614 370.664C199.147 370.984 199.755 371.144 200.438 371.144C201.142 371.144 201.744 371.016 202.246 370.76C202.747 370.493 203.131 370.109 203.398 369.608C203.664 369.096 203.798 368.472 203.798 367.736L205.222 368.712L200.31 368.664V366.776H206.038V367.08C206.038 368.424 205.798 369.549 205.318 370.456C204.838 371.352 204.176 372.029 203.334 372.488C202.502 372.936 201.542 373.16 200.454 373.16ZM211.179 373.16C210.368 373.16 209.648 372.989 209.019 372.648C208.389 372.296 207.888 371.816 207.515 371.208C207.152 370.6 206.971 369.907 206.971 369.128C206.971 368.36 207.147 367.677 207.499 367.08C207.861 366.472 208.352 365.992 208.971 365.64C209.589 365.277 210.277 365.096 211.035 365.096C211.781 365.096 212.437 365.267 213.003 365.608C213.579 365.939 214.027 366.397 214.347 366.984C214.677 367.56 214.843 368.216 214.843 368.952C214.843 369.091 214.832 369.235 214.811 369.384C214.8 369.523 214.773 369.683 214.731 369.864L208.235 369.88V368.312L213.755 368.296L212.907 368.952C212.885 368.493 212.8 368.109 212.651 367.8C212.512 367.491 212.304 367.256 212.027 367.096C211.76 366.925 211.429 366.84 211.035 366.84C210.619 366.84 210.256 366.936 209.947 367.128C209.637 367.309 209.397 367.571 209.227 367.912C209.067 368.243 208.987 368.637 208.987 369.096C208.987 369.565 209.072 369.976 209.243 370.328C209.424 370.669 209.68 370.936 210.011 371.128C210.341 371.309 210.725 371.4 211.163 371.4C211.557 371.4 211.915 371.336 212.235 371.208C212.555 371.069 212.832 370.867 213.067 370.6L214.299 371.832C213.925 372.269 213.467 372.6 212.923 372.824C212.389 373.048 211.808 373.16 211.179 373.16ZM217.087 373V362.056H219.183V373H217.087ZM215.279 367.112V365.272H220.991V367.112H215.279ZM225.295 373V365.272H227.407V373H225.295ZM226.351 364.024C226.01 364.024 225.727 363.912 225.503 363.688C225.279 363.453 225.167 363.165 225.167 362.824C225.167 362.493 225.279 362.211 225.503 361.976C225.727 361.741 226.01 361.624 226.351 361.624C226.703 361.624 226.986 361.741 227.199 361.976C227.423 362.211 227.535 362.493 227.535 362.824C227.535 363.165 227.423 363.453 227.199 363.688C226.986 363.912 226.703 364.024 226.351 364.024ZM234.464 373V368.568C234.464 368.109 234.32 367.736 234.032 367.448C233.744 367.16 233.371 367.016 232.912 367.016C232.613 367.016 232.347 367.08 232.112 367.208C231.877 367.336 231.691 367.517 231.552 367.752C231.424 367.987 231.36 368.259 231.36 368.568L230.544 368.152C230.544 367.544 230.672 367.016 230.928 366.568C231.195 366.109 231.557 365.752 232.016 365.496C232.485 365.24 233.013 365.112 233.6 365.112C234.165 365.112 234.672 365.256 235.12 365.544C235.568 365.821 235.92 366.189 236.176 366.648C236.432 367.096 236.56 367.581 236.56 368.104V373H234.464ZM229.264 373V365.272H231.36V373H229.264ZM242.509 373V362.056H244.605V373H242.509ZM240.701 367.112V365.272H246.413V367.112H240.701ZM251.037 373.16C250.258 373.16 249.554 372.984 248.925 372.632C248.306 372.269 247.81 371.784 247.437 371.176C247.074 370.557 246.893 369.869 246.893 369.112C246.893 368.355 247.074 367.677 247.437 367.08C247.799 366.472 248.295 365.992 248.925 365.64C249.554 365.277 250.253 365.096 251.021 365.096C251.81 365.096 252.514 365.277 253.133 365.64C253.762 365.992 254.258 366.472 254.621 367.08C254.983 367.677 255.165 368.355 255.165 369.112C255.165 369.869 254.983 370.557 254.621 371.176C254.258 371.784 253.762 372.269 253.133 372.632C252.514 372.984 251.815 373.16 251.037 373.16ZM251.021 371.208C251.415 371.208 251.762 371.123 252.061 370.952C252.37 370.771 252.605 370.525 252.765 370.216C252.935 369.896 253.021 369.533 253.021 369.128C253.021 368.723 252.935 368.365 252.765 368.056C252.594 367.747 252.359 367.507 252.061 367.336C251.762 367.155 251.415 367.064 251.021 367.064C250.637 367.064 250.295 367.155 249.997 367.336C249.698 367.507 249.463 367.747 249.293 368.056C249.122 368.365 249.037 368.723 249.037 369.128C249.037 369.533 249.122 369.896 249.293 370.216C249.463 370.525 249.698 370.771 249.997 370.952C250.295 371.123 250.637 371.208 251.021 371.208ZM259.81 373.16C259.127 373.16 258.519 373.016 257.986 372.728C257.463 372.44 257.053 372.04 256.754 371.528C256.455 371.016 256.306 370.424 256.306 369.752V365.272H258.418V369.704C258.418 370.024 258.471 370.301 258.578 370.536C258.685 370.76 258.845 370.931 259.058 371.048C259.271 371.165 259.522 371.224 259.81 371.224C260.247 371.224 260.589 371.091 260.834 370.824C261.079 370.557 261.202 370.184 261.202 369.704V365.272H263.298V369.752C263.298 370.435 263.149 371.032 262.85 371.544C262.562 372.056 262.151 372.456 261.618 372.744C261.095 373.021 260.493 373.16 259.81 373.16ZM268.615 373.16C267.826 373.16 267.116 372.984 266.487 372.632C265.858 372.28 265.362 371.8 264.999 371.192C264.636 370.584 264.455 369.901 264.455 369.144C264.455 368.376 264.636 367.688 264.999 367.08C265.362 366.472 265.858 365.992 266.487 365.64C267.127 365.277 267.836 365.096 268.615 365.096C269.223 365.096 269.783 365.208 270.295 365.432C270.807 365.656 271.25 365.976 271.623 366.392L270.279 367.752C270.076 367.528 269.831 367.357 269.543 367.24C269.266 367.123 268.956 367.064 268.615 367.064C268.231 367.064 267.884 367.155 267.575 367.336C267.276 367.507 267.036 367.747 266.855 368.056C266.684 368.355 266.599 368.712 266.599 369.128C266.599 369.533 266.684 369.896 266.855 370.216C267.036 370.525 267.276 370.771 267.575 370.952C267.884 371.123 268.231 371.208 268.615 371.208C268.967 371.208 269.282 371.149 269.559 371.032C269.847 370.904 270.092 370.723 270.295 370.488L271.655 371.848C271.26 372.275 270.807 372.6 270.295 372.824C269.783 373.048 269.223 373.16 268.615 373.16ZM278.042 373V368.568C278.042 368.109 277.898 367.736 277.61 367.448C277.322 367.16 276.949 367.016 276.49 367.016C276.191 367.016 275.925 367.08 275.69 367.208C275.455 367.336 275.269 367.517 275.13 367.752C275.002 367.987 274.938 368.259 274.938 368.568L274.122 368.152C274.122 367.544 274.25 367.016 274.506 366.568C274.762 366.109 275.114 365.752 275.562 365.496C276.021 365.24 276.543 365.112 277.13 365.112C277.717 365.112 278.234 365.24 278.682 365.496C279.141 365.752 279.498 366.104 279.754 366.552C280.01 367 280.138 367.517 280.138 368.104V373H278.042ZM272.842 373V361.432H274.938V373H272.842Z" fill="white"/>
<path d="M142 236C298.514 208.953 515.163 203.944 588 225.181" stroke="#EBF8FF" stroke-opacity="0.1" stroke-width="8"/>
</g>
<defs>
<filter id="filter0_d_825_9251" x="609.162" y="-296.979" width="837.309" height="894.701" filterUnits="userSpaceOnUse" color-interpolation-filters="sRGB">
<feFlood flood-opacity="0" result="BackgroundImageFix"/>
<feColorMatrix in="SourceAlpha" type="matrix" values="0 0 0 0 0 0 0 0 0 0 0 0 0 0 0 0 0 0 127 0" result="hardAlpha"/>
<feOffset dx="8" dy="8"/>
<feGaussianBlur stdDeviation="25"/>
<feComposite in2="hardAlpha" operator="out"/>
<feColorMatrix type="matrix" values="0 0 0 0 0 0 0 0 0 0 0 0 0 0 0 0 0 0 0.04 0"/>
<feBlend mode="normal" in2="BackgroundImageFix" result="effect1_dropShadow_825_9251"/>
<feBlend mode="normal" in="SourceGraphic" in2="effect1_dropShadow_825_9251" result="shape"/>
</filter>
<filter id="filter1_d_825_9251" x="748.188" y="-181.256" width="619.879" height="666.07" filterUnits="userSpaceOnUse" color-interpolation-filters="sRGB">
<feFlood flood-opacity="0" result="BackgroundImageFix"/>
<feColorMatrix in="SourceAlpha" type="matrix" values="0 0 0 0 0 0 0 0 0 0 0 0 0 0 0 0 0 0 127 0" result="hardAlpha"/>
<feOffset dx="8" dy="8"/>
<feGaussianBlur stdDeviation="25"/>
<feComposite in2="hardAlpha" operator="out"/>
<feColorMatrix type="matrix" values="0 0 0 0 0 0 0 0 0 0 0 0 0 0 0 0 0 0 0.06 0"/>
<feBlend mode="normal" in2="BackgroundImageFix" result="effect1_dropShadow_825_9251"/>
<feBlend mode="normal" in="SourceGraphic" in2="effect1_dropShadow_825_9251" result="shape"/>
</filter>
<filter id="filter2_d_825_9251" x="868.395" y="-69.3955" width="425.293" height="453.822" filterUnits="userSpaceOnUse" color-interpolation-filters="sRGB">
<feFlood flood-opacity="0" result="BackgroundImageFix"/>
<feColorMatrix in="SourceAlpha" type="matrix" values="0 0 0 0 0 0 0 0 0 0 0 0 0 0 0 0 0 0 127 0" result="hardAlpha"/>
<feOffset dx="8" dy="8"/>
<feGaussianBlur stdDeviation="25"/>
<feComposite in2="hardAlpha" operator="out"/>
<feColorMatrix type="matrix" values="0 0 0 0 0 0 0 0 0 0 0 0 0 0 0 0 0 0 0.08 0"/>
<feBlend mode="normal" in2="BackgroundImageFix" result="effect1_dropShadow_825_9251"/>
<feBlend mode="normal" in="SourceGraphic" in2="effect1_dropShadow_825_9251" result="shape"/>
</filter>
<filter id="filter3_d_825_9251" x="976.789" y="29.8447" width="253.111" height="265.729" filterUnits="userSpaceOnUse" color-interpolation-filters="sRGB">
<feFlood flood-opacity="0" result="BackgroundImageFix"/>
<feColorMatrix in="SourceAlpha" type="matrix" values="0 0 0 0 0 0 0 0 0 0 0 0 0 0 0 0 0 0 127 0" result="hardAlpha"/>
<feOffset dx="8" dy="8"/>
<feGaussianBlur stdDeviation="25"/>
<feComposite in2="hardAlpha" operator="out"/>
<feColorMatrix type="matrix" values="0 0 0 0 0 0 0 0 0 0 0 0 0 0 0 0 0 0 0.1 0"/>
<feBlend mode="normal" in2="BackgroundImageFix" result="effect1_dropShadow_825_9251"/>
<feBlend mode="normal" in="SourceGraphic" in2="effect1_dropShadow_825_9251" result="shape"/>
</filter>
<filter id="filter4_di_825_9251" x="144" y="329" width="195" height="84" filterUnits="userSpaceOnUse" color-interpolation-filters="sRGB">
<feFlood flood-opacity="0" result="BackgroundImageFix"/>
<feColorMatrix in="SourceAlpha" type="matrix" values="0 0 0 0 0 0 0 0 0 0 0 0 0 0 0 0 0 0 127 0" result="hardAlpha"/>
<feOffset dx="4" dy="4"/>
<feGaussianBlur stdDeviation="5"/>
<feComposite in2="hardAlpha" operator="out"/>
<feColorMatrix type="matrix" values="0 0 0 0 0 0 0 0 0 0 0 0 0 0 0 0 0 0 0.2 0"/>
<feBlend mode="normal" in2="BackgroundImageFix" result="effect1_dropShadow_825_9251"/>
<feBlend mode="normal" in="SourceGraphic" in2="effect1_dropShadow_825_9251" result="shape"/>
<feColorMatrix in="SourceAlpha" type="matrix" values="0 0 0 0 0 0 0 0 0 0 0 0 0 0 0 0 0 0 127 0" result="hardAlpha"/>
<feOffset dx="4" dy="4"/>
<feGaussianBlur stdDeviation="5"/>
<feComposite in2="hardAlpha" operator="arithmetic" k2="-1" k3="1"/>
<feColorMatrix type="matrix" values="0 0 0 0 1 0 0 0 0 1 0 0 0 0 1 0 0 0 0.23 0"/>
<feBlend mode="normal" in2="shape" result="effect2_innerShadow_825_9251"/>
</filter>
<clipPath id="clip0_825_9251">
<rect width="1536" height="500" fill="white"/>
</clipPath>
</defs>
</svg>
