<svg width="68" height="68" viewBox="0 0 68 68" fill="none" xmlns="http://www.w3.org/2000/svg">
<g filter="url(#filter0_di_889_8329)">
<rect x="6" y="6" width="48" height="48" rx="24" fill="#0062FF"/>
<rect x="20" y="19" width="21" height="21" rx="10.5" fill="white"/>
<path d="M28.9766 18.0778C23.8052 18.6399 19.6456 22.7995 19.0835 27.8585C18.409 33.4796 21.8941 38.3137 26.8406 39.8876V37.3019C26.8406 37.3019 26.3909 37.4143 25.8288 37.4143C24.2549 37.4143 23.5804 36.0652 23.468 35.2783C23.3556 34.8286 23.1307 34.4913 22.7934 34.1541C22.4562 34.0417 22.3438 34.0417 22.3438 33.9292C22.3438 33.7044 22.681 33.7044 22.7934 33.7044C23.468 33.7044 24.0301 34.4913 24.2549 34.8286C24.817 35.728 25.4916 35.9528 25.8288 35.9528C26.2785 35.9528 26.6158 35.8404 26.8406 35.728C26.953 34.941 27.2903 34.1541 27.9648 33.7044C25.3791 33.1423 23.468 31.6808 23.468 29.2075C23.468 27.9709 24.0301 26.7343 24.817 25.8349C24.7046 25.6101 24.5922 25.0479 24.5922 24.261C24.5922 23.8113 24.5922 23.1368 24.9295 22.4623C24.9295 22.4623 26.5034 22.4623 28.0773 23.9237C28.6394 23.6989 29.4263 23.5865 30.2133 23.5865C31.0002 23.5865 31.7872 23.6989 32.4617 23.9237C33.9232 22.4623 35.6095 22.4623 35.6095 22.4623C35.8343 23.1368 35.8343 23.8113 35.8343 24.261C35.8343 25.1604 35.7219 25.6101 35.6095 25.8349C36.3964 26.7343 36.9585 27.8585 36.9585 29.2075C36.9585 31.6808 35.0474 33.1423 32.4617 33.7044C33.1362 34.2665 33.5859 35.2783 33.5859 36.2901V40C38.1952 38.5385 41.4554 34.2665 41.4554 29.32C41.4554 22.5747 35.7219 17.2909 28.9766 18.0778Z" fill="#0062FF"/>
<rect x="6.5" y="6.5" width="47" height="47" rx="23.5" stroke="black" stroke-opacity="0.1"/>
</g>
<defs>
<filter id="filter0_di_889_8329" x="0" y="0" width="68" height="68" filterUnits="userSpaceOnUse" color-interpolation-filters="sRGB">
<feFlood flood-opacity="0" result="BackgroundImageFix"/>
<feColorMatrix in="SourceAlpha" type="matrix" values="0 0 0 0 0 0 0 0 0 0 0 0 0 0 0 0 0 0 127 0" result="hardAlpha"/>
<feOffset dx="4" dy="4"/>
<feGaussianBlur stdDeviation="5"/>
<feComposite in2="hardAlpha" operator="out"/>
<feColorMatrix type="matrix" values="0 0 0 0 0 0 0 0 0 0 0 0 0 0 0 0 0 0 0.2 0"/>
<feBlend mode="normal" in2="BackgroundImageFix" result="effect1_dropShadow_889_8329"/>
<feBlend mode="normal" in="SourceGraphic" in2="effect1_dropShadow_889_8329" result="shape"/>
<feColorMatrix in="SourceAlpha" type="matrix" values="0 0 0 0 0 0 0 0 0 0 0 0 0 0 0 0 0 0 127 0" result="hardAlpha"/>
<feOffset dx="4" dy="4"/>
<feGaussianBlur stdDeviation="5"/>
<feComposite in2="hardAlpha" operator="arithmetic" k2="-1" k3="1"/>
<feColorMatrix type="matrix" values="0 0 0 0 1 0 0 0 0 1 0 0 0 0 1 0 0 0 0.23 0"/>
<feBlend mode="normal" in2="shape" result="effect2_innerShadow_889_8329"/>
</filter>
</defs>
</svg>
