<svg width="286" height="260" viewBox="0 0 286 260" fill="none" xmlns="http://www.w3.org/2000/svg">
<path d="M233.5 1H44.5C20.7518 1 1.5 20.2518 1.5 44V208C1.5 231.748 20.7517 251 44.5 251H233.5C257.248 251 276.5 231.748 276.5 208V44C276.5 20.2518 257.248 1 233.5 1Z" fill="#0062FF"/>
<g filter="url(#filter0_di_845_10012)">
<path d="M6.5 45.4594C6.5 23.6665 24.3523 6 46.3745 6H231.626C253.647 6 271.5 23.6665 271.5 45.4594V206.541C271.5 228.335 253.647 246 231.626 246H46.3745C24.3523 246 6.5 228.335 6.5 206.541V45.4594Z" fill="#B7D3FF"/>
</g>
<g filter="url(#filter1_di_845_10012)">
<path d="M209.946 23.3018H117.37C113.514 23.3018 110.389 26.4276 110.389 30.2835C110.389 34.1394 113.514 37.2652 117.37 37.2652H209.946C213.802 37.2652 216.927 34.1394 216.927 30.2835C216.927 26.4276 213.802 23.3018 209.946 23.3018Z" fill="#00235C"/>
</g>
<g filter="url(#filter2_di_845_10012)">
<path d="M244.286 216.025H113.955C111.986 216.025 110.389 217.622 110.389 219.592C110.389 221.562 111.986 223.159 113.955 223.159H244.286C246.256 223.159 247.853 221.562 247.853 219.592C247.853 217.622 246.256 216.025 244.286 216.025Z" fill="#00235C"/>
</g>
<g filter="url(#filter3_di_845_10012)">
<path d="M117.522 214.032C117.522 212.063 115.925 210.466 113.955 210.466C111.986 210.466 110.389 212.063 110.389 214.032V225.154C110.389 227.124 111.986 228.721 113.955 228.721C115.925 228.721 117.522 227.124 117.522 225.154V214.032Z" fill="#0062FF"/>
</g>
<g filter="url(#filter4_di_845_10012)">
<path d="M247.852 214.032C247.852 212.063 246.255 210.466 244.285 210.466C242.316 210.466 240.719 212.063 240.719 214.032V225.154C240.719 227.124 242.316 228.721 244.285 228.721C246.255 228.721 247.852 227.124 247.852 225.154V214.032Z" fill="#0062FF"/>
</g>
<g filter="url(#filter5_di_845_10012)">
<path d="M176.53 42.6152H116.185C112.984 42.6152 110.389 45.2101 110.389 48.4111C110.389 51.612 112.984 54.2069 116.185 54.2069H176.53C179.731 54.2069 182.326 51.612 182.326 48.4111C182.326 45.2101 179.731 42.6152 176.53 42.6152Z" fill="#0062FF"/>
</g>
<g filter="url(#filter6_di_845_10012)">
<path d="M7.85742 45.4208C7.85742 23.7528 25.4227 6.1875 47.0907 6.1875H89.6432V244.812H47.0907C25.4227 244.812 7.85742 227.248 7.85742 205.579V45.4208Z" fill="#E5EFFF"/>
</g>
<g filter="url(#filter7_di_845_10012)">
<path d="M55.8216 45H41.6789C32.8147 45 25.6289 52.1858 25.6289 61.05V75.1927C25.6289 84.0569 32.8147 91.2427 41.6789 91.2427H55.8216C64.6858 91.2427 71.8716 84.0569 71.8716 75.1927V61.05C71.8716 52.1858 64.6858 45 55.8216 45Z" fill="#00235C"/>
</g>
<g filter="url(#filter8_di_845_10012)">
<path d="M55.8216 103.242H41.6789C32.8147 103.242 25.6289 110.428 25.6289 119.292V133.435C25.6289 142.299 32.8147 149.485 41.6789 149.485H55.8216C64.6858 149.485 71.8716 142.299 71.8716 133.435V119.292C71.8716 110.428 64.6858 103.242 55.8216 103.242Z" fill="#003385"/>
</g>
<g filter="url(#filter9_di_845_10012)">
<path d="M55.8216 161.485H41.6789C32.8147 161.485 25.6289 168.671 25.6289 177.535V191.678C25.6289 200.542 32.8147 207.728 41.6789 207.728H55.8216C64.6858 207.728 71.8716 200.542 71.8716 191.678V177.535C71.8716 168.671 64.6858 161.485 55.8216 161.485Z" fill="#0052D6"/>
</g>
<g filter="url(#filter10_di_845_10012)">
<path d="M219.188 65.4414H139.054C123.222 65.4414 110.389 78.2752 110.389 94.1064V176.377C110.389 192.208 123.222 205.042 139.054 205.042H219.188C235.019 205.042 247.853 192.208 247.853 176.377V94.1064C247.853 78.2752 235.019 65.4414 219.188 65.4414Z" fill="#0043AD"/>
</g>
<g filter="url(#filter11_di_845_10012)">
<path d="M209.487 125.973C216.106 125.973 221.473 120.606 221.473 113.987C221.473 107.367 216.106 102 209.487 102C202.867 102 197.5 107.367 197.5 113.987C197.5 120.606 202.867 125.973 209.487 125.973Z" fill="#5C9AFF"/>
</g>
<g filter="url(#filter12_di_845_10012)">
<path d="M186.252 101.78C186.829 98.3486 184.507 95.0482 181.029 95.0034C174.947 94.925 168.896 96.2009 163.325 98.7708C155.838 102.225 149.567 107.856 145.329 114.928C141.092 122.001 139.085 130.187 139.571 138.418C140.058 146.649 143.014 154.541 148.055 161.066C153.096 167.591 159.986 172.444 167.828 174.992C175.669 177.541 184.096 177.666 192.01 175.351C199.923 173.037 206.955 168.39 212.187 162.018C216.08 157.276 218.842 151.743 220.302 145.839C221.137 142.461 218.53 139.382 215.064 139.073C211.599 138.765 208.606 141.365 207.543 144.677C206.455 148.068 204.733 151.242 202.45 154.023C198.826 158.437 193.955 161.656 188.473 163.259C182.991 164.862 177.153 164.776 171.722 163.01C166.29 161.245 161.517 157.883 158.025 153.364C154.533 148.844 152.485 143.376 152.148 137.675C151.812 131.973 153.202 126.303 156.137 121.404C159.072 116.504 163.416 112.604 168.603 110.211C171.87 108.704 175.376 107.839 178.931 107.642C182.405 107.45 185.676 105.211 186.252 101.78Z" fill="#B7D3FF"/>
</g>
<defs>
<filter id="filter0_di_845_10012" x="0.5" y="0" width="285" height="260" filterUnits="userSpaceOnUse" color-interpolation-filters="sRGB">
<feFlood flood-opacity="0" result="BackgroundImageFix"/>
<feColorMatrix in="SourceAlpha" type="matrix" values="0 0 0 0 0 0 0 0 0 0 0 0 0 0 0 0 0 0 127 0" result="hardAlpha"/>
<feOffset dx="4" dy="4"/>
<feGaussianBlur stdDeviation="5"/>
<feComposite in2="hardAlpha" operator="out"/>
<feColorMatrix type="matrix" values="0 0 0 0 0 0 0 0 0 0 0 0 0 0 0 0 0 0 0.2 0"/>
<feBlend mode="normal" in2="BackgroundImageFix" result="effect1_dropShadow_845_10012"/>
<feBlend mode="normal" in="SourceGraphic" in2="effect1_dropShadow_845_10012" result="shape"/>
<feColorMatrix in="SourceAlpha" type="matrix" values="0 0 0 0 0 0 0 0 0 0 0 0 0 0 0 0 0 0 127 0" result="hardAlpha"/>
<feOffset dx="4" dy="4"/>
<feGaussianBlur stdDeviation="5"/>
<feComposite in2="hardAlpha" operator="arithmetic" k2="-1" k3="1"/>
<feColorMatrix type="matrix" values="0 0 0 0 1 0 0 0 0 1 0 0 0 0 1 0 0 0 0.23 0"/>
<feBlend mode="normal" in2="shape" result="effect2_innerShadow_845_10012"/>
</filter>
<filter id="filter1_di_845_10012" x="104.389" y="17.3018" width="126.539" height="33.9639" filterUnits="userSpaceOnUse" color-interpolation-filters="sRGB">
<feFlood flood-opacity="0" result="BackgroundImageFix"/>
<feColorMatrix in="SourceAlpha" type="matrix" values="0 0 0 0 0 0 0 0 0 0 0 0 0 0 0 0 0 0 127 0" result="hardAlpha"/>
<feOffset dx="4" dy="4"/>
<feGaussianBlur stdDeviation="5"/>
<feComposite in2="hardAlpha" operator="out"/>
<feColorMatrix type="matrix" values="0 0 0 0 0 0 0 0 0 0 0 0 0 0 0 0 0 0 0.2 0"/>
<feBlend mode="normal" in2="BackgroundImageFix" result="effect1_dropShadow_845_10012"/>
<feBlend mode="normal" in="SourceGraphic" in2="effect1_dropShadow_845_10012" result="shape"/>
<feColorMatrix in="SourceAlpha" type="matrix" values="0 0 0 0 0 0 0 0 0 0 0 0 0 0 0 0 0 0 127 0" result="hardAlpha"/>
<feOffset dx="4" dy="4"/>
<feGaussianBlur stdDeviation="5"/>
<feComposite in2="hardAlpha" operator="arithmetic" k2="-1" k3="1"/>
<feColorMatrix type="matrix" values="0 0 0 0 1 0 0 0 0 1 0 0 0 0 1 0 0 0 0.23 0"/>
<feBlend mode="normal" in2="shape" result="effect2_innerShadow_845_10012"/>
</filter>
<filter id="filter2_di_845_10012" x="104.389" y="210.025" width="157.465" height="27.1338" filterUnits="userSpaceOnUse" color-interpolation-filters="sRGB">
<feFlood flood-opacity="0" result="BackgroundImageFix"/>
<feColorMatrix in="SourceAlpha" type="matrix" values="0 0 0 0 0 0 0 0 0 0 0 0 0 0 0 0 0 0 127 0" result="hardAlpha"/>
<feOffset dx="4" dy="4"/>
<feGaussianBlur stdDeviation="5"/>
<feComposite in2="hardAlpha" operator="out"/>
<feColorMatrix type="matrix" values="0 0 0 0 0 0 0 0 0 0 0 0 0 0 0 0 0 0 0.2 0"/>
<feBlend mode="normal" in2="BackgroundImageFix" result="effect1_dropShadow_845_10012"/>
<feBlend mode="normal" in="SourceGraphic" in2="effect1_dropShadow_845_10012" result="shape"/>
<feColorMatrix in="SourceAlpha" type="matrix" values="0 0 0 0 0 0 0 0 0 0 0 0 0 0 0 0 0 0 127 0" result="hardAlpha"/>
<feOffset dx="4" dy="4"/>
<feGaussianBlur stdDeviation="5"/>
<feComposite in2="hardAlpha" operator="arithmetic" k2="-1" k3="1"/>
<feColorMatrix type="matrix" values="0 0 0 0 1 0 0 0 0 1 0 0 0 0 1 0 0 0 0.23 0"/>
<feBlend mode="normal" in2="shape" result="effect2_innerShadow_845_10012"/>
</filter>
<filter id="filter3_di_845_10012" x="104.389" y="204.466" width="27.1328" height="38.2549" filterUnits="userSpaceOnUse" color-interpolation-filters="sRGB">
<feFlood flood-opacity="0" result="BackgroundImageFix"/>
<feColorMatrix in="SourceAlpha" type="matrix" values="0 0 0 0 0 0 0 0 0 0 0 0 0 0 0 0 0 0 127 0" result="hardAlpha"/>
<feOffset dx="4" dy="4"/>
<feGaussianBlur stdDeviation="5"/>
<feComposite in2="hardAlpha" operator="out"/>
<feColorMatrix type="matrix" values="0 0 0 0 0 0 0 0 0 0 0 0 0 0 0 0 0 0 0.2 0"/>
<feBlend mode="normal" in2="BackgroundImageFix" result="effect1_dropShadow_845_10012"/>
<feBlend mode="normal" in="SourceGraphic" in2="effect1_dropShadow_845_10012" result="shape"/>
<feColorMatrix in="SourceAlpha" type="matrix" values="0 0 0 0 0 0 0 0 0 0 0 0 0 0 0 0 0 0 127 0" result="hardAlpha"/>
<feOffset dx="4" dy="4"/>
<feGaussianBlur stdDeviation="5"/>
<feComposite in2="hardAlpha" operator="arithmetic" k2="-1" k3="1"/>
<feColorMatrix type="matrix" values="0 0 0 0 1 0 0 0 0 1 0 0 0 0 1 0 0 0 0.23 0"/>
<feBlend mode="normal" in2="shape" result="effect2_innerShadow_845_10012"/>
</filter>
<filter id="filter4_di_845_10012" x="234.719" y="204.466" width="27.1328" height="38.2549" filterUnits="userSpaceOnUse" color-interpolation-filters="sRGB">
<feFlood flood-opacity="0" result="BackgroundImageFix"/>
<feColorMatrix in="SourceAlpha" type="matrix" values="0 0 0 0 0 0 0 0 0 0 0 0 0 0 0 0 0 0 127 0" result="hardAlpha"/>
<feOffset dx="4" dy="4"/>
<feGaussianBlur stdDeviation="5"/>
<feComposite in2="hardAlpha" operator="out"/>
<feColorMatrix type="matrix" values="0 0 0 0 0 0 0 0 0 0 0 0 0 0 0 0 0 0 0.2 0"/>
<feBlend mode="normal" in2="BackgroundImageFix" result="effect1_dropShadow_845_10012"/>
<feBlend mode="normal" in="SourceGraphic" in2="effect1_dropShadow_845_10012" result="shape"/>
<feColorMatrix in="SourceAlpha" type="matrix" values="0 0 0 0 0 0 0 0 0 0 0 0 0 0 0 0 0 0 127 0" result="hardAlpha"/>
<feOffset dx="4" dy="4"/>
<feGaussianBlur stdDeviation="5"/>
<feComposite in2="hardAlpha" operator="arithmetic" k2="-1" k3="1"/>
<feColorMatrix type="matrix" values="0 0 0 0 1 0 0 0 0 1 0 0 0 0 1 0 0 0 0.23 0"/>
<feBlend mode="normal" in2="shape" result="effect2_innerShadow_845_10012"/>
</filter>
<filter id="filter5_di_845_10012" x="104.389" y="36.6152" width="91.9375" height="31.5918" filterUnits="userSpaceOnUse" color-interpolation-filters="sRGB">
<feFlood flood-opacity="0" result="BackgroundImageFix"/>
<feColorMatrix in="SourceAlpha" type="matrix" values="0 0 0 0 0 0 0 0 0 0 0 0 0 0 0 0 0 0 127 0" result="hardAlpha"/>
<feOffset dx="4" dy="4"/>
<feGaussianBlur stdDeviation="5"/>
<feComposite in2="hardAlpha" operator="out"/>
<feColorMatrix type="matrix" values="0 0 0 0 0 0 0 0 0 0 0 0 0 0 0 0 0 0 0.2 0"/>
<feBlend mode="normal" in2="BackgroundImageFix" result="effect1_dropShadow_845_10012"/>
<feBlend mode="normal" in="SourceGraphic" in2="effect1_dropShadow_845_10012" result="shape"/>
<feColorMatrix in="SourceAlpha" type="matrix" values="0 0 0 0 0 0 0 0 0 0 0 0 0 0 0 0 0 0 127 0" result="hardAlpha"/>
<feOffset dx="4" dy="4"/>
<feGaussianBlur stdDeviation="5"/>
<feComposite in2="hardAlpha" operator="arithmetic" k2="-1" k3="1"/>
<feColorMatrix type="matrix" values="0 0 0 0 1 0 0 0 0 1 0 0 0 0 1 0 0 0 0.23 0"/>
<feBlend mode="normal" in2="shape" result="effect2_innerShadow_845_10012"/>
</filter>
<filter id="filter6_di_845_10012" x="1.85742" y="0.1875" width="101.785" height="258.625" filterUnits="userSpaceOnUse" color-interpolation-filters="sRGB">
<feFlood flood-opacity="0" result="BackgroundImageFix"/>
<feColorMatrix in="SourceAlpha" type="matrix" values="0 0 0 0 0 0 0 0 0 0 0 0 0 0 0 0 0 0 127 0" result="hardAlpha"/>
<feOffset dx="4" dy="4"/>
<feGaussianBlur stdDeviation="5"/>
<feComposite in2="hardAlpha" operator="out"/>
<feColorMatrix type="matrix" values="0 0 0 0 0 0 0 0 0 0 0 0 0 0 0 0 0 0 0.2 0"/>
<feBlend mode="normal" in2="BackgroundImageFix" result="effect1_dropShadow_845_10012"/>
<feBlend mode="normal" in="SourceGraphic" in2="effect1_dropShadow_845_10012" result="shape"/>
<feColorMatrix in="SourceAlpha" type="matrix" values="0 0 0 0 0 0 0 0 0 0 0 0 0 0 0 0 0 0 127 0" result="hardAlpha"/>
<feOffset dx="4" dy="4"/>
<feGaussianBlur stdDeviation="5"/>
<feComposite in2="hardAlpha" operator="arithmetic" k2="-1" k3="1"/>
<feColorMatrix type="matrix" values="0 0 0 0 1 0 0 0 0 1 0 0 0 0 1 0 0 0 0.23 0"/>
<feBlend mode="normal" in2="shape" result="effect2_innerShadow_845_10012"/>
</filter>
<filter id="filter7_di_845_10012" x="19.6289" y="39" width="66.2422" height="66.2432" filterUnits="userSpaceOnUse" color-interpolation-filters="sRGB">
<feFlood flood-opacity="0" result="BackgroundImageFix"/>
<feColorMatrix in="SourceAlpha" type="matrix" values="0 0 0 0 0 0 0 0 0 0 0 0 0 0 0 0 0 0 127 0" result="hardAlpha"/>
<feOffset dx="4" dy="4"/>
<feGaussianBlur stdDeviation="5"/>
<feComposite in2="hardAlpha" operator="out"/>
<feColorMatrix type="matrix" values="0 0 0 0 0 0 0 0 0 0 0 0 0 0 0 0 0 0 0.2 0"/>
<feBlend mode="normal" in2="BackgroundImageFix" result="effect1_dropShadow_845_10012"/>
<feBlend mode="normal" in="SourceGraphic" in2="effect1_dropShadow_845_10012" result="shape"/>
<feColorMatrix in="SourceAlpha" type="matrix" values="0 0 0 0 0 0 0 0 0 0 0 0 0 0 0 0 0 0 127 0" result="hardAlpha"/>
<feOffset dx="4" dy="4"/>
<feGaussianBlur stdDeviation="5"/>
<feComposite in2="hardAlpha" operator="arithmetic" k2="-1" k3="1"/>
<feColorMatrix type="matrix" values="0 0 0 0 1 0 0 0 0 1 0 0 0 0 1 0 0 0 0.23 0"/>
<feBlend mode="normal" in2="shape" result="effect2_innerShadow_845_10012"/>
</filter>
<filter id="filter8_di_845_10012" x="19.6289" y="97.2422" width="66.2422" height="66.2432" filterUnits="userSpaceOnUse" color-interpolation-filters="sRGB">
<feFlood flood-opacity="0" result="BackgroundImageFix"/>
<feColorMatrix in="SourceAlpha" type="matrix" values="0 0 0 0 0 0 0 0 0 0 0 0 0 0 0 0 0 0 127 0" result="hardAlpha"/>
<feOffset dx="4" dy="4"/>
<feGaussianBlur stdDeviation="5"/>
<feComposite in2="hardAlpha" operator="out"/>
<feColorMatrix type="matrix" values="0 0 0 0 0 0 0 0 0 0 0 0 0 0 0 0 0 0 0.2 0"/>
<feBlend mode="normal" in2="BackgroundImageFix" result="effect1_dropShadow_845_10012"/>
<feBlend mode="normal" in="SourceGraphic" in2="effect1_dropShadow_845_10012" result="shape"/>
<feColorMatrix in="SourceAlpha" type="matrix" values="0 0 0 0 0 0 0 0 0 0 0 0 0 0 0 0 0 0 127 0" result="hardAlpha"/>
<feOffset dx="4" dy="4"/>
<feGaussianBlur stdDeviation="5"/>
<feComposite in2="hardAlpha" operator="arithmetic" k2="-1" k3="1"/>
<feColorMatrix type="matrix" values="0 0 0 0 1 0 0 0 0 1 0 0 0 0 1 0 0 0 0.23 0"/>
<feBlend mode="normal" in2="shape" result="effect2_innerShadow_845_10012"/>
</filter>
<filter id="filter9_di_845_10012" x="19.6289" y="155.485" width="66.2422" height="66.2432" filterUnits="userSpaceOnUse" color-interpolation-filters="sRGB">
<feFlood flood-opacity="0" result="BackgroundImageFix"/>
<feColorMatrix in="SourceAlpha" type="matrix" values="0 0 0 0 0 0 0 0 0 0 0 0 0 0 0 0 0 0 127 0" result="hardAlpha"/>
<feOffset dx="4" dy="4"/>
<feGaussianBlur stdDeviation="5"/>
<feComposite in2="hardAlpha" operator="out"/>
<feColorMatrix type="matrix" values="0 0 0 0 0 0 0 0 0 0 0 0 0 0 0 0 0 0 0.2 0"/>
<feBlend mode="normal" in2="BackgroundImageFix" result="effect1_dropShadow_845_10012"/>
<feBlend mode="normal" in="SourceGraphic" in2="effect1_dropShadow_845_10012" result="shape"/>
<feColorMatrix in="SourceAlpha" type="matrix" values="0 0 0 0 0 0 0 0 0 0 0 0 0 0 0 0 0 0 127 0" result="hardAlpha"/>
<feOffset dx="4" dy="4"/>
<feGaussianBlur stdDeviation="5"/>
<feComposite in2="hardAlpha" operator="arithmetic" k2="-1" k3="1"/>
<feColorMatrix type="matrix" values="0 0 0 0 1 0 0 0 0 1 0 0 0 0 1 0 0 0 0.23 0"/>
<feBlend mode="normal" in2="shape" result="effect2_innerShadow_845_10012"/>
</filter>
<filter id="filter10_di_845_10012" x="104.389" y="59.4414" width="157.465" height="159.601" filterUnits="userSpaceOnUse" color-interpolation-filters="sRGB">
<feFlood flood-opacity="0" result="BackgroundImageFix"/>
<feColorMatrix in="SourceAlpha" type="matrix" values="0 0 0 0 0 0 0 0 0 0 0 0 0 0 0 0 0 0 127 0" result="hardAlpha"/>
<feOffset dx="4" dy="4"/>
<feGaussianBlur stdDeviation="5"/>
<feComposite in2="hardAlpha" operator="out"/>
<feColorMatrix type="matrix" values="0 0 0 0 0 0 0 0 0 0 0 0 0 0 0 0 0 0 0.2 0"/>
<feBlend mode="normal" in2="BackgroundImageFix" result="effect1_dropShadow_845_10012"/>
<feBlend mode="normal" in="SourceGraphic" in2="effect1_dropShadow_845_10012" result="shape"/>
<feColorMatrix in="SourceAlpha" type="matrix" values="0 0 0 0 0 0 0 0 0 0 0 0 0 0 0 0 0 0 127 0" result="hardAlpha"/>
<feOffset dx="4" dy="4"/>
<feGaussianBlur stdDeviation="5"/>
<feComposite in2="hardAlpha" operator="arithmetic" k2="-1" k3="1"/>
<feColorMatrix type="matrix" values="0 0 0 0 1 0 0 0 0 1 0 0 0 0 1 0 0 0 0.23 0"/>
<feBlend mode="normal" in2="shape" result="effect2_innerShadow_845_10012"/>
</filter>
<filter id="filter11_di_845_10012" x="191.5" y="96" width="43.9727" height="43.9727" filterUnits="userSpaceOnUse" color-interpolation-filters="sRGB">
<feFlood flood-opacity="0" result="BackgroundImageFix"/>
<feColorMatrix in="SourceAlpha" type="matrix" values="0 0 0 0 0 0 0 0 0 0 0 0 0 0 0 0 0 0 127 0" result="hardAlpha"/>
<feOffset dx="4" dy="4"/>
<feGaussianBlur stdDeviation="5"/>
<feComposite in2="hardAlpha" operator="out"/>
<feColorMatrix type="matrix" values="0 0 0 0 0 0 0 0 0 0 0 0 0 0 0 0 0 0 0.2 0"/>
<feBlend mode="normal" in2="BackgroundImageFix" result="effect1_dropShadow_845_10012"/>
<feBlend mode="normal" in="SourceGraphic" in2="effect1_dropShadow_845_10012" result="shape"/>
<feColorMatrix in="SourceAlpha" type="matrix" values="0 0 0 0 0 0 0 0 0 0 0 0 0 0 0 0 0 0 127 0" result="hardAlpha"/>
<feOffset dx="4" dy="4"/>
<feGaussianBlur stdDeviation="5"/>
<feComposite in2="hardAlpha" operator="arithmetic" k2="-1" k3="1"/>
<feColorMatrix type="matrix" values="0 0 0 0 1 0 0 0 0 1 0 0 0 0 1 0 0 0 0.23 0"/>
<feBlend mode="normal" in2="shape" result="effect2_innerShadow_845_10012"/>
</filter>
<filter id="filter12_di_845_10012" x="133.5" y="89" width="100.959" height="102" filterUnits="userSpaceOnUse" color-interpolation-filters="sRGB">
<feFlood flood-opacity="0" result="BackgroundImageFix"/>
<feColorMatrix in="SourceAlpha" type="matrix" values="0 0 0 0 0 0 0 0 0 0 0 0 0 0 0 0 0 0 127 0" result="hardAlpha"/>
<feOffset dx="4" dy="4"/>
<feGaussianBlur stdDeviation="5"/>
<feComposite in2="hardAlpha" operator="out"/>
<feColorMatrix type="matrix" values="0 0 0 0 0 0 0 0 0 0 0 0 0 0 0 0 0 0 0.2 0"/>
<feBlend mode="normal" in2="BackgroundImageFix" result="effect1_dropShadow_845_10012"/>
<feBlend mode="normal" in="SourceGraphic" in2="effect1_dropShadow_845_10012" result="shape"/>
<feColorMatrix in="SourceAlpha" type="matrix" values="0 0 0 0 0 0 0 0 0 0 0 0 0 0 0 0 0 0 127 0" result="hardAlpha"/>
<feOffset dx="4" dy="4"/>
<feGaussianBlur stdDeviation="5"/>
<feComposite in2="hardAlpha" operator="arithmetic" k2="-1" k3="1"/>
<feColorMatrix type="matrix" values="0 0 0 0 1 0 0 0 0 1 0 0 0 0 1 0 0 0 0.23 0"/>
<feBlend mode="normal" in2="shape" result="effect2_innerShadow_845_10012"/>
</filter>
</defs>
</svg>
