<svg width="68" height="68" viewBox="0 0 68 68" fill="none" xmlns="http://www.w3.org/2000/svg">
<g filter="url(#filter0_di_889_8319)">
<rect x="6" y="6" width="48" height="48" rx="24" fill="#0062FF"/>
<path fill-rule="evenodd" clip-rule="evenodd" d="M18.9544 39.9998H24.0004V25.9998H18.9544V39.9998ZM18.8164 21.0338C18.8164 22.4058 19.8464 23.4338 21.3884 23.4338C23.1024 23.4338 24.1304 22.4058 24.1304 21.0338C24.1304 19.6618 23.1004 18.6338 21.5584 18.6338C19.8444 18.6338 18.8164 19.6618 18.8164 21.0338ZM37.1164 39.9998H42.0004V32.3478C42.0004 27.9538 40.0464 25.9998 37.6044 25.9998C35.1624 25.9998 33.8604 26.8138 33.2104 27.9538V25.9998H28.1644V39.9998H33.2104V32.3478C33.2104 30.0698 34.8384 29.7438 35.3264 29.7438C35.8144 29.7438 37.1164 30.2318 37.1164 32.3478V39.9998Z" fill="white"/>
<rect x="6.5" y="6.5" width="47" height="47" rx="23.5" stroke="black" stroke-opacity="0.1"/>
</g>
<defs>
<filter id="filter0_di_889_8319" x="0" y="0" width="68" height="68" filterUnits="userSpaceOnUse" color-interpolation-filters="sRGB">
<feFlood flood-opacity="0" result="BackgroundImageFix"/>
<feColorMatrix in="SourceAlpha" type="matrix" values="0 0 0 0 0 0 0 0 0 0 0 0 0 0 0 0 0 0 127 0" result="hardAlpha"/>
<feOffset dx="4" dy="4"/>
<feGaussianBlur stdDeviation="5"/>
<feComposite in2="hardAlpha" operator="out"/>
<feColorMatrix type="matrix" values="0 0 0 0 0 0 0 0 0 0 0 0 0 0 0 0 0 0 0.2 0"/>
<feBlend mode="normal" in2="BackgroundImageFix" result="effect1_dropShadow_889_8319"/>
<feBlend mode="normal" in="SourceGraphic" in2="effect1_dropShadow_889_8319" result="shape"/>
<feColorMatrix in="SourceAlpha" type="matrix" values="0 0 0 0 0 0 0 0 0 0 0 0 0 0 0 0 0 0 127 0" result="hardAlpha"/>
<feOffset dx="4" dy="4"/>
<feGaussianBlur stdDeviation="5"/>
<feComposite in2="hardAlpha" operator="arithmetic" k2="-1" k3="1"/>
<feColorMatrix type="matrix" values="0 0 0 0 1 0 0 0 0 1 0 0 0 0 1 0 0 0 0.23 0"/>
<feBlend mode="normal" in2="shape" result="effect2_innerShadow_889_8319"/>
</filter>
</defs>
</svg>
