<svg width="26" height="26" viewBox="0 0 26 26" fill="none" xmlns="http://www.w3.org/2000/svg">
<g clip-path="url(#clip0_868_10760)">
<path d="M16.25 4.875C16.681 4.875 17.0943 5.0462 17.399 5.35095C17.7038 5.6557 17.875 6.06902 17.875 6.5V19.5C17.875 19.931 17.7038 20.3443 17.399 20.649C17.0943 20.9538 16.681 21.125 16.25 21.125H9.75C9.31902 21.125 8.9057 20.9538 8.60095 20.649C8.29621 20.3443 8.125 19.931 8.125 19.5V6.5C8.125 6.06902 8.29621 5.6557 8.60095 5.35095C8.9057 5.0462 9.31902 4.875 9.75 4.875H16.25ZM9.75 3.25C8.88805 3.25 8.0614 3.59241 7.4519 4.2019C6.84241 4.8114 6.5 5.63805 6.5 6.5V19.5C6.5 20.362 6.84241 21.1886 7.4519 21.7981C8.0614 22.4076 8.88805 22.75 9.75 22.75H16.25C17.112 22.75 17.9386 22.4076 18.5481 21.7981C19.1576 21.1886 19.5 20.362 19.5 19.5V6.5C19.5 5.63805 19.1576 4.8114 18.5481 4.2019C17.9386 3.59241 17.112 3.25 16.25 3.25H9.75Z" fill="#010B14"/>
<path d="M13 19.5003C13.431 19.5003 13.8443 19.3291 14.1491 19.0243C14.4538 18.7196 14.625 18.3062 14.625 17.8753C14.625 17.4443 14.4538 17.031 14.1491 16.7262C13.8443 16.4215 13.431 16.2503 13 16.2503C12.569 16.2503 12.1557 16.4215 11.851 16.7262C11.5462 17.031 11.375 17.4443 11.375 17.8753C11.375 18.3062 11.5462 18.7196 11.851 19.0243C12.1557 19.3291 12.569 19.5003 13 19.5003ZM2.59839 6.59451C2.69273 6.64443 2.77631 6.71244 2.84436 6.79467C2.9124 6.8769 2.96358 6.97173 2.99497 7.07374C3.02636 7.17575 3.03734 7.28295 3.02729 7.3892C3.01724 7.49546 2.98635 7.5987 2.93639 7.69301C2.07229 9.32841 1.62204 11.1506 1.62501 13.0003C1.62501 14.9178 2.09951 16.7248 2.93639 18.3075C3.03724 18.498 3.05828 18.7208 2.9949 18.9268C2.93151 19.1328 2.78888 19.3052 2.59839 19.406C2.4079 19.5069 2.18515 19.5279 1.97914 19.4645C1.77313 19.4011 1.60074 19.2585 1.49989 19.068C0.511927 17.1983 -0.00303477 15.115 1.3454e-05 13.0003C1.3454e-05 10.8114 0.542763 8.74439 1.49989 6.93251C1.5498 6.83817 1.61782 6.75459 1.70005 6.68654C1.78227 6.6185 1.8771 6.56732 1.97911 6.53593C2.08112 6.50454 2.18832 6.49356 2.29458 6.50361C2.40084 6.51366 2.50407 6.54455 2.59839 6.59451ZM23.4016 6.59451C23.496 6.54455 23.5992 6.51366 23.7055 6.50361C23.8117 6.49356 23.9189 6.50454 24.0209 6.53593C24.1229 6.56732 24.2178 6.6185 24.3 6.68654C24.3822 6.75459 24.4502 6.83817 24.5001 6.93251C25.4882 8.80224 26.0031 10.8855 26 13.0003C26.0031 15.115 25.4882 17.1983 24.5001 19.068C24.3993 19.2585 24.2269 19.4011 24.0209 19.4645C23.8149 19.5279 23.5921 19.5069 23.4016 19.406C23.2111 19.3052 23.0685 19.1328 23.0051 18.9268C22.9417 18.7208 22.9628 18.498 23.0636 18.3075C23.9277 16.6721 24.378 14.8499 24.375 13.0003C24.375 11.0828 23.9005 9.27576 23.0636 7.69301C23.0137 7.5987 22.9828 7.49546 22.9727 7.3892C22.9627 7.28295 22.9737 7.17575 23.0051 7.07374C23.0364 6.97173 23.0876 6.8769 23.1557 6.79467C23.2237 6.71244 23.3073 6.64443 23.4016 6.59451ZM4.96764 8.99301C5.06712 9.0318 5.15798 9.08982 5.23502 9.16375C5.31207 9.23767 5.37378 9.32606 5.41665 9.42386C5.45951 9.52165 5.48267 9.62694 5.48481 9.73369C5.48696 9.84045 5.46804 9.94658 5.42914 10.046C5.06179 10.9876 4.87385 11.9896 4.87501 13.0003C4.87501 14.0435 5.07001 15.0396 5.42751 15.9545C5.47286 16.0549 5.4973 16.1635 5.49936 16.2737C5.50142 16.3839 5.48104 16.4933 5.43947 16.5954C5.39791 16.6974 5.33602 16.79 5.25757 16.8673C5.17912 16.9447 5.08575 17.0053 4.98314 17.0455C4.88053 17.0856 4.77082 17.1045 4.66069 17.1009C4.55055 17.0974 4.4423 17.0714 4.3425 17.0247C4.24271 16.978 4.15346 16.9115 4.08018 16.8292C4.00691 16.7469 3.95114 16.6505 3.91626 16.546C3.47502 15.416 3.24905 14.2134 3.25001 13.0003C3.25001 11.7506 3.48564 10.5546 3.91626 9.45451C3.99462 9.254 4.14934 9.09277 4.34647 9.00624C4.5436 8.91971 4.76701 8.91496 4.96764 8.99301ZM21.0324 8.99301C21.1318 8.95411 21.238 8.93519 21.3447 8.93734C21.4515 8.93948 21.5568 8.96265 21.6545 9.00551C21.7523 9.04837 21.8407 9.11009 21.9147 9.18713C21.9886 9.26417 22.0466 9.35503 22.0854 9.45451C22.5144 10.5546 22.75 11.7506 22.75 13.0003C22.75 14.2499 22.5144 15.4459 22.0838 16.546C21.998 16.7359 21.8427 16.8855 21.6498 16.9641C21.4568 17.0427 21.2411 17.0442 21.0471 16.9683C20.8531 16.8923 20.6957 16.7448 20.6074 16.5562C20.5191 16.3675 20.5066 16.1521 20.5725 15.9545C20.93 15.0396 21.125 14.0435 21.125 13.0003C21.125 11.957 20.93 10.9609 20.5725 10.046C20.4939 9.84539 20.4981 9.62175 20.5844 9.42427C20.6706 9.2268 20.8318 9.07167 21.0324 8.99301Z" fill="#010B14"/>
</g>
<defs>
<clipPath id="clip0_868_10760">
<rect width="26" height="26" fill="white"/>
</clipPath>
</defs>
</svg>
