<svg width="48" height="48" viewBox="0 0 48 48" fill="none" xmlns="http://www.w3.org/2000/svg">
<path d="M24 3C12.4031 3 3 12.4031 3 24C3 35.5969 12.4031 45 24 45C35.5969 45 45 35.5969 45 24C45 12.4031 35.5969 3 24 3ZM33 25.125C33 25.3312 32.8312 25.5 32.625 25.5H25.5V32.625C25.5 32.8312 25.3312 33 25.125 33H22.875C22.6688 33 22.5 32.8312 22.5 32.625V25.5H15.375C15.1687 25.5 15 25.3312 15 25.125V22.875C15 22.6688 15.1687 22.5 15.375 22.5H22.5V15.375C22.5 15.1687 22.6688 15 22.875 15H25.125C25.3312 15 25.5 15.1687 25.5 15.375V22.5H32.625C32.8312 22.5 33 22.6688 33 22.875V25.125Z" fill="black"/>
</svg>
