<svg width="28" height="28" viewBox="0 0 28 28" fill="none" xmlns="http://www.w3.org/2000/svg">
<path fill-rule="evenodd" clip-rule="evenodd" d="M19.1097 16C19.6014 16 20 16.3471 20 16.7753C20 18.161 19.3679 19.4899 18.2427 20.4697C17.1174 21.4495 15.5913 22 14 22C12.4087 22 10.8826 21.4495 9.75735 20.4697C8.63212 19.4899 8 18.161 8 16.7753C8 16.3471 8.39864 16.0001 8.89035 16.0001C9.38206 16.0001 9.78063 16.3471 9.78063 16.7753C9.78063 17.7497 10.2252 18.6843 11.0165 19.3733C11.8077 20.0623 12.881 20.4494 14 20.4494C15.119 20.4494 16.1923 20.0623 16.9836 19.3733C17.7748 18.6843 18.2194 17.7497 18.2194 16.7753C18.2194 16.3471 18.6179 16 19.1097 16Z" fill="#4E4B66"/>
<path d="M28 14C28 21.732 21.732 28 14 28C6.26803 28 0 21.732 0 14C0 6.26802 6.26803 0 14 0C21.732 0 28 6.26802 28 14ZM2.24251 14C2.24251 20.4935 7.5065 25.7575 14 25.7575C20.4935 25.7575 25.7575 20.4935 25.7575 14C25.7575 7.50651 20.4935 2.2425 14 2.2425C7.5065 2.2425 2.24251 7.50651 2.24251 14Z" fill="#4E4B66"/>
<circle cx="8.5" cy="10.5" r="1.5" fill="#4E4B66"/>
<circle cx="19.5" cy="10.5" r="1.5" fill="#4E4B66"/>
</svg>
